<svg width="449" height="292" viewBox="0 0 449 292" fill="none" xmlns="http://www.w3.org/2000/svg">
<path d="M15.1172 274.93V276.008C15.1172 277.289 14.957 278.438 14.6367 279.453C14.3164 280.469 13.8555 281.332 13.2539 282.043C12.6523 282.754 11.9297 283.297 11.0859 283.672C10.25 284.047 9.3125 284.234 8.27344 284.234C7.26562 284.234 6.33984 284.047 5.49609 283.672C4.66016 283.297 3.93359 282.754 3.31641 282.043C2.70703 281.332 2.23438 280.469 1.89844 279.453C1.5625 278.438 1.39453 277.289 1.39453 276.008V274.93C1.39453 273.648 1.55859 272.504 1.88672 271.496C2.22266 270.48 2.69531 269.617 3.30469 268.906C3.91406 268.188 4.63672 267.641 5.47266 267.266C6.31641 266.891 7.24219 266.703 8.25 266.703C9.28906 266.703 10.2266 266.891 11.0625 267.266C11.9062 267.641 12.6289 268.188 13.2305 268.906C13.8398 269.617 14.3047 270.48 14.625 271.496C14.9531 272.504 15.1172 273.648 15.1172 274.93ZM12.8789 276.008V274.906C12.8789 273.891 12.7734 272.992 12.5625 272.211C12.3594 271.43 12.0586 270.773 11.6602 270.242C11.2617 269.711 10.7734 269.309 10.1953 269.035C9.625 268.762 8.97656 268.625 8.25 268.625C7.54688 268.625 6.91016 268.762 6.33984 269.035C5.77734 269.309 5.29297 269.711 4.88672 270.242C4.48828 270.773 4.17969 271.43 3.96094 272.211C3.74219 272.992 3.63281 273.891 3.63281 274.906V276.008C3.63281 277.031 3.74219 277.938 3.96094 278.727C4.17969 279.508 4.49219 280.168 4.89844 280.707C5.3125 281.238 5.80078 281.641 6.36328 281.914C6.93359 282.188 7.57031 282.324 8.27344 282.324C9.00781 282.324 9.66016 282.188 10.2305 281.914C10.8008 281.641 11.2812 281.238 11.6719 280.707C12.0703 280.168 12.3711 279.508 12.5742 278.727C12.7773 277.938 12.8789 277.031 12.8789 276.008ZM18.3633 271.32H20.5312V282.219H25.1719V271.32H27.3516V282.219H31.9805V271.32H34.1484V284H18.3633V271.32ZM39.9492 280.566L45.7969 271.32H47.9766V284H45.7969V274.754L39.9492 284H37.793V271.32H39.9492V280.566ZM59.5898 265.801H61.3711C61.3711 266.566 61.2539 267.176 61.0195 267.629C60.7852 268.074 60.4648 268.418 60.0586 268.66C59.6602 268.902 59.207 269.086 58.6992 269.211C58.1992 269.336 57.6797 269.457 57.1406 269.574C56.4688 269.715 55.8438 269.938 55.2656 270.242C54.6953 270.539 54.2031 270.961 53.7891 271.508C53.3828 272.055 53.082 272.766 52.8867 273.641C52.6992 274.516 52.6484 275.598 52.7344 276.887V277.965H50.9531V276.887C50.9531 275.441 51.0898 274.18 51.3633 273.102C51.6445 272.023 52.0391 271.113 52.5469 270.371C53.0547 269.629 53.6562 269.039 54.3516 268.602C55.0547 268.164 55.8281 267.863 56.6719 267.699C57.2812 267.582 57.8047 267.457 58.2422 267.324C58.6797 267.184 59.0117 266.996 59.2383 266.762C59.4727 266.527 59.5898 266.207 59.5898 265.801ZM57.0234 272.047C57.8516 272.047 58.5898 272.191 59.2383 272.48C59.8867 272.77 60.4375 273.172 60.8906 273.688C61.3438 274.203 61.6875 274.812 61.9219 275.516C62.1641 276.211 62.2852 276.969 62.2852 277.789V278.047C62.2852 278.93 62.1562 279.75 61.8984 280.508C61.6484 281.258 61.2773 281.914 60.7852 282.477C60.3008 283.031 59.707 283.465 59.0039 283.777C58.3086 284.09 57.5156 284.246 56.625 284.246C55.7344 284.246 54.9375 284.09 54.2344 283.777C53.5391 283.465 52.9453 283.031 52.4531 282.477C51.9609 281.914 51.5859 281.258 51.3281 280.508C51.0781 279.75 50.9531 278.93 50.9531 278.047V277.789C50.9531 277.594 50.9883 277.402 51.0586 277.215C51.1289 277.027 51.2148 276.836 51.3164 276.641C51.4258 276.445 51.5234 276.238 51.6094 276.02C51.8984 275.316 52.293 274.664 52.793 274.062C53.3008 273.461 53.9062 272.977 54.6094 272.609C55.3203 272.234 56.125 272.047 57.0234 272.047ZM56.6016 273.816C55.8047 273.816 55.1484 274 54.6328 274.367C54.125 274.734 53.7461 275.223 53.4961 275.832C53.2461 276.434 53.1211 277.086 53.1211 277.789V278.047C53.1211 278.641 53.1914 279.203 53.332 279.734C53.4727 280.266 53.6836 280.738 53.9648 281.152C54.2539 281.559 54.6172 281.879 55.0547 282.113C55.5 282.348 56.0234 282.465 56.625 282.465C57.2266 282.465 57.7461 282.348 58.1836 282.113C58.6211 281.879 58.9805 281.559 59.2617 281.152C59.543 280.738 59.7539 280.266 59.8945 279.734C60.0352 279.203 60.1055 278.641 60.1055 278.047V277.789C60.1055 277.258 60.0352 276.754 59.8945 276.277C59.7539 275.801 59.5391 275.379 59.25 275.012C58.9688 274.645 58.6055 274.355 58.1602 274.145C57.7227 273.926 57.2031 273.816 56.6016 273.816ZM66.8906 271.32V284H64.7227V271.32H66.8906ZM75.2109 271.32L69.1992 278.586H66.1641L65.8359 276.688H68.3203L72.5742 271.32H75.2109ZM72.8789 284L68.2148 278.258L69.6094 276.688L75.6328 284H72.8789ZM84.9961 281.832V275.305C84.9961 274.805 84.8945 274.371 84.6914 274.004C84.4961 273.629 84.1992 273.34 83.8008 273.137C83.4023 272.934 82.9102 272.832 82.3242 272.832C81.7773 272.832 81.2969 272.926 80.8828 273.113C80.4766 273.301 80.1562 273.547 79.9219 273.852C79.6953 274.156 79.582 274.484 79.582 274.836H77.4141C77.4141 274.383 77.5312 273.934 77.7656 273.488C78 273.043 78.3359 272.641 78.7734 272.281C79.2188 271.914 79.75 271.625 80.3672 271.414C80.9922 271.195 81.6875 271.086 82.4531 271.086C83.375 271.086 84.1875 271.242 84.8906 271.555C85.6016 271.867 86.1562 272.34 86.5547 272.973C86.9609 273.598 87.1641 274.383 87.1641 275.328V281.234C87.1641 281.656 87.1992 282.105 87.2695 282.582C87.3477 283.059 87.4609 283.469 87.6094 283.812V284H85.3477C85.2383 283.75 85.1523 283.418 85.0898 283.004C85.0273 282.582 84.9961 282.191 84.9961 281.832ZM85.3711 276.312L85.3945 277.836H83.2031C82.5859 277.836 82.0352 277.887 81.5508 277.988C81.0664 278.082 80.6602 278.227 80.332 278.422C80.0039 278.617 79.7539 278.863 79.582 279.16C79.4102 279.449 79.3242 279.789 79.3242 280.18C79.3242 280.578 79.4141 280.941 79.5938 281.27C79.7734 281.598 80.043 281.859 80.4023 282.055C80.7695 282.242 81.2188 282.336 81.75 282.336C82.4141 282.336 83 282.195 83.5078 281.914C84.0156 281.633 84.418 281.289 84.7148 280.883C85.0195 280.477 85.1836 280.082 85.207 279.699L86.1328 280.742C86.0781 281.07 85.9297 281.434 85.6875 281.832C85.4453 282.23 85.1211 282.613 84.7148 282.98C84.3164 283.34 83.8398 283.641 83.2852 283.883C82.7383 284.117 82.1211 284.234 81.4336 284.234C80.5742 284.234 79.8203 284.066 79.1719 283.73C78.5312 283.395 78.0312 282.945 77.6719 282.383C77.3203 281.812 77.1445 281.176 77.1445 280.473C77.1445 279.793 77.2773 279.195 77.543 278.68C77.8086 278.156 78.1914 277.723 78.6914 277.379C79.1914 277.027 79.793 276.762 80.4961 276.582C81.1992 276.402 81.9844 276.312 82.8516 276.312H85.3711ZM93.1523 266.938L93 279.184H91.043L90.8789 266.938H93.1523ZM90.8086 282.91C90.8086 282.559 90.9141 282.262 91.125 282.02C91.3438 281.777 91.6641 281.656 92.0859 281.656C92.5 281.656 92.8164 281.777 93.0352 282.02C93.2617 282.262 93.375 282.559 93.375 282.91C93.375 283.246 93.2617 283.535 93.0352 283.777C92.8164 284.02 92.5 284.141 92.0859 284.141C91.6641 284.141 91.3438 284.02 91.125 283.777C90.9141 283.535 90.8086 283.246 90.8086 282.91ZM114.188 274.273V276.113H104.953V274.273H114.188ZM105.305 266.938V284H103.043V266.938H105.305ZM116.156 266.938V284H113.906V266.938H116.156ZM125.109 284.234C124.227 284.234 123.426 284.086 122.707 283.789C121.996 283.484 121.383 283.059 120.867 282.512C120.359 281.965 119.969 281.316 119.695 280.566C119.422 279.816 119.285 278.996 119.285 278.105V277.613C119.285 276.582 119.438 275.664 119.742 274.859C120.047 274.047 120.461 273.359 120.984 272.797C121.508 272.234 122.102 271.809 122.766 271.52C123.43 271.23 124.117 271.086 124.828 271.086C125.734 271.086 126.516 271.242 127.172 271.555C127.836 271.867 128.379 272.305 128.801 272.867C129.223 273.422 129.535 274.078 129.738 274.836C129.941 275.586 130.043 276.406 130.043 277.297V278.27H120.574V276.5H127.875V276.336C127.844 275.773 127.727 275.227 127.523 274.695C127.328 274.164 127.016 273.727 126.586 273.383C126.156 273.039 125.57 272.867 124.828 272.867C124.336 272.867 123.883 272.973 123.469 273.184C123.055 273.387 122.699 273.691 122.402 274.098C122.105 274.504 121.875 275 121.711 275.586C121.547 276.172 121.465 276.848 121.465 277.613V278.105C121.465 278.707 121.547 279.273 121.711 279.805C121.883 280.328 122.129 280.789 122.449 281.188C122.777 281.586 123.172 281.898 123.633 282.125C124.102 282.352 124.633 282.465 125.227 282.465C125.992 282.465 126.641 282.309 127.172 281.996C127.703 281.684 128.168 281.266 128.566 280.742L129.879 281.785C129.605 282.199 129.258 282.594 128.836 282.969C128.414 283.344 127.895 283.648 127.277 283.883C126.668 284.117 125.945 284.234 125.109 284.234ZM142.09 282.688L145.617 271.32H147.938L142.852 285.957C142.734 286.27 142.578 286.605 142.383 286.965C142.195 287.332 141.953 287.68 141.656 288.008C141.359 288.336 141 288.602 140.578 288.805C140.164 289.016 139.668 289.121 139.09 289.121C138.918 289.121 138.699 289.098 138.434 289.051C138.168 289.004 137.98 288.965 137.871 288.934L137.859 287.176C137.922 287.184 138.02 287.191 138.152 287.199C138.293 287.215 138.391 287.223 138.445 287.223C138.938 287.223 139.355 287.156 139.699 287.023C140.043 286.898 140.332 286.684 140.566 286.379C140.809 286.082 141.016 285.672 141.188 285.148L142.09 282.688ZM139.5 271.32L142.793 281.164L143.355 283.449L141.797 284.246L137.133 271.32H139.5ZM151.523 271.32H153.691L153.504 276.066C153.457 277.27 153.32 278.309 153.094 279.184C152.867 280.059 152.578 280.805 152.227 281.422C151.875 282.031 151.48 282.543 151.043 282.957C150.613 283.371 150.168 283.719 149.707 284H148.629L148.688 282.23L149.133 282.219C149.391 281.914 149.641 281.602 149.883 281.281C150.125 280.953 150.348 280.566 150.551 280.121C150.754 279.668 150.922 279.117 151.055 278.469C151.195 277.812 151.285 277.012 151.324 276.066L151.523 271.32ZM152.062 271.32H159.691V284H157.523V273.324H152.062V271.32ZM148.137 282.219H161.32V287.738H159.152V284H150.305V287.738H148.125L148.137 282.219ZM171.199 281.832V275.305C171.199 274.805 171.098 274.371 170.895 274.004C170.699 273.629 170.402 273.34 170.004 273.137C169.605 272.934 169.113 272.832 168.527 272.832C167.98 272.832 167.5 272.926 167.086 273.113C166.68 273.301 166.359 273.547 166.125 273.852C165.898 274.156 165.785 274.484 165.785 274.836H163.617C163.617 274.383 163.734 273.934 163.969 273.488C164.203 273.043 164.539 272.641 164.977 272.281C165.422 271.914 165.953 271.625 166.57 271.414C167.195 271.195 167.891 271.086 168.656 271.086C169.578 271.086 170.391 271.242 171.094 271.555C171.805 271.867 172.359 272.34 172.758 272.973C173.164 273.598 173.367 274.383 173.367 275.328V281.234C173.367 281.656 173.402 282.105 173.473 282.582C173.551 283.059 173.664 283.469 173.812 283.812V284H171.551C171.441 283.75 171.355 283.418 171.293 283.004C171.23 282.582 171.199 282.191 171.199 281.832ZM171.574 276.312L171.598 277.836H169.406C168.789 277.836 168.238 277.887 167.754 277.988C167.27 278.082 166.863 278.227 166.535 278.422C166.207 278.617 165.957 278.863 165.785 279.16C165.613 279.449 165.527 279.789 165.527 280.18C165.527 280.578 165.617 280.941 165.797 281.27C165.977 281.598 166.246 281.859 166.605 282.055C166.973 282.242 167.422 282.336 167.953 282.336C168.617 282.336 169.203 282.195 169.711 281.914C170.219 281.633 170.621 281.289 170.918 280.883C171.223 280.477 171.387 280.082 171.41 279.699L172.336 280.742C172.281 281.07 172.133 281.434 171.891 281.832C171.648 282.23 171.324 282.613 170.918 282.98C170.52 283.34 170.043 283.641 169.488 283.883C168.941 284.117 168.324 284.234 167.637 284.234C166.777 284.234 166.023 284.066 165.375 283.73C164.734 283.395 164.234 282.945 163.875 282.383C163.523 281.812 163.348 281.176 163.348 280.473C163.348 279.793 163.48 279.195 163.746 278.68C164.012 278.156 164.395 277.723 164.895 277.379C165.395 277.027 165.996 276.762 166.699 276.582C167.402 276.402 168.188 276.312 169.055 276.312H171.574ZM185.25 271.32V273.113H179.121V271.32H185.25ZM187.16 271.32V284H184.992V271.32H187.16ZM178.594 271.32H180.773L180.445 277.438C180.391 278.383 180.301 279.219 180.176 279.945C180.059 280.664 179.895 281.281 179.684 281.797C179.48 282.312 179.223 282.734 178.91 283.062C178.605 283.383 178.238 283.621 177.809 283.777C177.379 283.926 176.883 284 176.32 284H175.641V282.09L176.109 282.055C176.445 282.031 176.73 281.953 176.965 281.82C177.207 281.688 177.41 281.492 177.574 281.234C177.738 280.969 177.871 280.629 177.973 280.215C178.082 279.801 178.164 279.309 178.219 278.738C178.281 278.168 178.328 277.504 178.359 276.746L178.594 271.32ZM190.078 277.801V277.531C190.078 276.617 190.211 275.77 190.477 274.988C190.742 274.199 191.125 273.516 191.625 272.938C192.125 272.352 192.73 271.898 193.441 271.578C194.152 271.25 194.949 271.086 195.832 271.086C196.723 271.086 197.523 271.25 198.234 271.578C198.953 271.898 199.562 272.352 200.062 272.938C200.57 273.516 200.957 274.199 201.223 274.988C201.488 275.77 201.621 276.617 201.621 277.531V277.801C201.621 278.715 201.488 279.562 201.223 280.344C200.957 281.125 200.57 281.809 200.062 282.395C199.562 282.973 198.957 283.426 198.246 283.754C197.543 284.074 196.746 284.234 195.855 284.234C194.965 284.234 194.164 284.074 193.453 283.754C192.742 283.426 192.133 282.973 191.625 282.395C191.125 281.809 190.742 281.125 190.477 280.344C190.211 279.562 190.078 278.715 190.078 277.801ZM192.246 277.531V277.801C192.246 278.434 192.32 279.031 192.469 279.594C192.617 280.148 192.84 280.641 193.137 281.07C193.441 281.5 193.82 281.84 194.273 282.09C194.727 282.332 195.254 282.453 195.855 282.453C196.449 282.453 196.969 282.332 197.414 282.09C197.867 281.84 198.242 281.5 198.539 281.07C198.836 280.641 199.059 280.148 199.207 279.594C199.363 279.031 199.441 278.434 199.441 277.801V277.531C199.441 276.906 199.363 276.316 199.207 275.762C199.059 275.199 198.832 274.703 198.527 274.273C198.23 273.836 197.855 273.492 197.402 273.242C196.957 272.992 196.434 272.867 195.832 272.867C195.238 272.867 194.715 272.992 194.262 273.242C193.816 273.492 193.441 273.836 193.137 274.273C192.84 274.703 192.617 275.199 192.469 275.762C192.32 276.316 192.246 276.906 192.246 277.531ZM209.414 282.453C209.93 282.453 210.406 282.348 210.844 282.137C211.281 281.926 211.641 281.637 211.922 281.27C212.203 280.895 212.363 280.469 212.402 279.992H214.465C214.426 280.742 214.172 281.441 213.703 282.09C213.242 282.73 212.637 283.25 211.887 283.648C211.137 284.039 210.312 284.234 209.414 284.234C208.461 284.234 207.629 284.066 206.918 283.73C206.215 283.395 205.629 282.934 205.16 282.348C204.699 281.762 204.352 281.09 204.117 280.332C203.891 279.566 203.777 278.758 203.777 277.906V277.414C203.777 276.562 203.891 275.758 204.117 275C204.352 274.234 204.699 273.559 205.16 272.973C205.629 272.387 206.215 271.926 206.918 271.59C207.629 271.254 208.461 271.086 209.414 271.086C210.406 271.086 211.273 271.289 212.016 271.695C212.758 272.094 213.34 272.641 213.762 273.336C214.191 274.023 214.426 274.805 214.465 275.68H212.402C212.363 275.156 212.215 274.684 211.957 274.262C211.707 273.84 211.363 273.504 210.926 273.254C210.496 272.996 209.992 272.867 209.414 272.867C208.75 272.867 208.191 273 207.738 273.266C207.293 273.523 206.938 273.875 206.672 274.32C206.414 274.758 206.227 275.246 206.109 275.785C206 276.316 205.945 276.859 205.945 277.414V277.906C205.945 278.461 206 279.008 206.109 279.547C206.219 280.086 206.402 280.574 206.66 281.012C206.926 281.449 207.281 281.801 207.727 282.066C208.18 282.324 208.742 282.453 209.414 282.453ZM218.684 275.68H222.492C223.516 275.68 224.379 275.859 225.082 276.219C225.785 276.57 226.316 277.059 226.676 277.684C227.043 278.301 227.227 279.004 227.227 279.793C227.227 280.379 227.125 280.93 226.922 281.445C226.719 281.953 226.414 282.398 226.008 282.781C225.609 283.164 225.113 283.465 224.52 283.684C223.934 283.895 223.258 284 222.492 284H217.102V271.32H219.27V282.219H222.492C223.117 282.219 223.617 282.105 223.992 281.879C224.367 281.652 224.637 281.359 224.801 281C224.965 280.641 225.047 280.266 225.047 279.875C225.047 279.492 224.965 279.117 224.801 278.75C224.637 278.383 224.367 278.078 223.992 277.836C223.617 277.586 223.117 277.461 222.492 277.461H218.684V275.68ZM240.621 277.941H238.289V276.605H240.445C241.047 276.605 241.523 276.531 241.875 276.383C242.227 276.227 242.477 276.012 242.625 275.738C242.773 275.465 242.848 275.145 242.848 274.777C242.848 274.449 242.762 274.141 242.59 273.852C242.426 273.555 242.16 273.316 241.793 273.137C241.426 272.949 240.934 272.855 240.316 272.855C239.816 272.855 239.363 272.945 238.957 273.125C238.551 273.297 238.227 273.535 237.984 273.84C237.75 274.137 237.633 274.473 237.633 274.848H235.465C235.465 274.074 235.684 273.41 236.121 272.855C236.566 272.293 237.156 271.859 237.891 271.555C238.633 271.25 239.441 271.098 240.316 271.098C241.051 271.098 241.707 271.18 242.285 271.344C242.871 271.5 243.367 271.734 243.773 272.047C244.18 272.352 244.488 272.734 244.699 273.195C244.918 273.648 245.027 274.176 245.027 274.777C245.027 275.207 244.926 275.613 244.723 275.996C244.52 276.379 244.227 276.719 243.844 277.016C243.461 277.305 242.996 277.531 242.449 277.695C241.91 277.859 241.301 277.941 240.621 277.941ZM238.289 277.121H240.621C241.379 277.121 242.047 277.195 242.625 277.344C243.203 277.484 243.688 277.695 244.078 277.977C244.469 278.258 244.762 278.605 244.957 279.02C245.16 279.426 245.262 279.895 245.262 280.426C245.262 281.02 245.141 281.555 244.898 282.031C244.664 282.5 244.328 282.898 243.891 283.227C243.453 283.555 242.93 283.805 242.32 283.977C241.719 284.148 241.051 284.234 240.316 284.234C239.496 284.234 238.699 284.094 237.926 283.812C237.152 283.531 236.516 283.098 236.016 282.512C235.516 281.918 235.266 281.164 235.266 280.25H237.434C237.434 280.633 237.555 280.996 237.797 281.34C238.039 281.684 238.375 281.961 238.805 282.172C239.242 282.383 239.746 282.488 240.316 282.488C240.926 282.488 241.434 282.395 241.84 282.207C242.246 282.02 242.551 281.77 242.754 281.457C242.965 281.145 243.07 280.805 243.07 280.438C243.07 279.961 242.977 279.578 242.789 279.289C242.602 279 242.312 278.789 241.922 278.656C241.539 278.516 241.047 278.445 240.445 278.445H238.289V277.121ZM255.551 281.832V275.305C255.551 274.805 255.449 274.371 255.246 274.004C255.051 273.629 254.754 273.34 254.355 273.137C253.957 272.934 253.465 272.832 252.879 272.832C252.332 272.832 251.852 272.926 251.438 273.113C251.031 273.301 250.711 273.547 250.477 273.852C250.25 274.156 250.137 274.484 250.137 274.836H247.969C247.969 274.383 248.086 273.934 248.32 273.488C248.555 273.043 248.891 272.641 249.328 272.281C249.773 271.914 250.305 271.625 250.922 271.414C251.547 271.195 252.242 271.086 253.008 271.086C253.93 271.086 254.742 271.242 255.445 271.555C256.156 271.867 256.711 272.34 257.109 272.973C257.516 273.598 257.719 274.383 257.719 275.328V281.234C257.719 281.656 257.754 282.105 257.824 282.582C257.902 283.059 258.016 283.469 258.164 283.812V284H255.902C255.793 283.75 255.707 283.418 255.645 283.004C255.582 282.582 255.551 282.191 255.551 281.832ZM255.926 276.312L255.949 277.836H253.758C253.141 277.836 252.59 277.887 252.105 277.988C251.621 278.082 251.215 278.227 250.887 278.422C250.559 278.617 250.309 278.863 250.137 279.16C249.965 279.449 249.879 279.789 249.879 280.18C249.879 280.578 249.969 280.941 250.148 281.27C250.328 281.598 250.598 281.859 250.957 282.055C251.324 282.242 251.773 282.336 252.305 282.336C252.969 282.336 253.555 282.195 254.062 281.914C254.57 281.633 254.973 281.289 255.27 280.883C255.574 280.477 255.738 280.082 255.762 279.699L256.688 280.742C256.633 281.07 256.484 281.434 256.242 281.832C256 282.23 255.676 282.613 255.27 282.98C254.871 283.34 254.395 283.641 253.84 283.883C253.293 284.117 252.676 284.234 251.988 284.234C251.129 284.234 250.375 284.066 249.727 283.73C249.086 283.395 248.586 282.945 248.227 282.383C247.875 281.812 247.699 281.176 247.699 280.473C247.699 279.793 247.832 279.195 248.098 278.68C248.363 278.156 248.746 277.723 249.246 277.379C249.746 277.027 250.348 276.762 251.051 276.582C251.754 276.402 252.539 276.312 253.406 276.312H255.926ZM269.32 271.32V273.113H263.461V284H261.293V271.32H269.32ZM273.375 273.758V288.875H271.195V271.32H273.188L273.375 273.758ZM281.918 277.555V277.801C281.918 278.723 281.809 279.578 281.59 280.367C281.371 281.148 281.051 281.828 280.629 282.406C280.215 282.984 279.703 283.434 279.094 283.754C278.484 284.074 277.785 284.234 276.996 284.234C276.191 284.234 275.48 284.102 274.863 283.836C274.246 283.57 273.723 283.184 273.293 282.676C272.863 282.168 272.52 281.559 272.262 280.848C272.012 280.137 271.84 279.336 271.746 278.445V277.133C271.84 276.195 272.016 275.355 272.273 274.613C272.531 273.871 272.871 273.238 273.293 272.715C273.723 272.184 274.242 271.781 274.852 271.508C275.461 271.227 276.164 271.086 276.961 271.086C277.758 271.086 278.465 271.242 279.082 271.555C279.699 271.859 280.219 272.297 280.641 272.867C281.062 273.438 281.379 274.121 281.59 274.918C281.809 275.707 281.918 276.586 281.918 277.555ZM279.738 277.801V277.555C279.738 276.922 279.672 276.328 279.539 275.773C279.406 275.211 279.199 274.719 278.918 274.297C278.645 273.867 278.293 273.531 277.863 273.289C277.434 273.039 276.922 272.914 276.328 272.914C275.781 272.914 275.305 273.008 274.898 273.195C274.5 273.383 274.16 273.637 273.879 273.957C273.598 274.27 273.367 274.629 273.188 275.035C273.016 275.434 272.887 275.848 272.801 276.277V279.312C272.957 279.859 273.176 280.375 273.457 280.859C273.738 281.336 274.113 281.723 274.582 282.02C275.051 282.309 275.641 282.453 276.352 282.453C276.938 282.453 277.441 282.332 277.863 282.09C278.293 281.84 278.645 281.5 278.918 281.07C279.199 280.641 279.406 280.148 279.539 279.594C279.672 279.031 279.738 278.434 279.738 277.801ZM288.105 282.688L291.633 271.32H293.953L288.867 285.957C288.75 286.27 288.594 286.605 288.398 286.965C288.211 287.332 287.969 287.68 287.672 288.008C287.375 288.336 287.016 288.602 286.594 288.805C286.18 289.016 285.684 289.121 285.105 289.121C284.934 289.121 284.715 289.098 284.449 289.051C284.184 289.004 283.996 288.965 283.887 288.934L283.875 287.176C283.938 287.184 284.035 287.191 284.168 287.199C284.309 287.215 284.406 287.223 284.461 287.223C284.953 287.223 285.371 287.156 285.715 287.023C286.059 286.898 286.348 286.684 286.582 286.379C286.824 286.082 287.031 285.672 287.203 285.148L288.105 282.688ZM285.516 271.32L288.809 281.164L289.371 283.449L287.812 284.246L283.148 271.32H285.516ZM300.645 277.941H298.312V276.605H300.469C301.07 276.605 301.547 276.531 301.898 276.383C302.25 276.227 302.5 276.012 302.648 275.738C302.797 275.465 302.871 275.145 302.871 274.777C302.871 274.449 302.785 274.141 302.613 273.852C302.449 273.555 302.184 273.316 301.816 273.137C301.449 272.949 300.957 272.855 300.34 272.855C299.84 272.855 299.387 272.945 298.98 273.125C298.574 273.297 298.25 273.535 298.008 273.84C297.773 274.137 297.656 274.473 297.656 274.848H295.488C295.488 274.074 295.707 273.41 296.145 272.855C296.59 272.293 297.18 271.859 297.914 271.555C298.656 271.25 299.465 271.098 300.34 271.098C301.074 271.098 301.73 271.18 302.309 271.344C302.895 271.5 303.391 271.734 303.797 272.047C304.203 272.352 304.512 272.734 304.723 273.195C304.941 273.648 305.051 274.176 305.051 274.777C305.051 275.207 304.949 275.613 304.746 275.996C304.543 276.379 304.25 276.719 303.867 277.016C303.484 277.305 303.02 277.531 302.473 277.695C301.934 277.859 301.324 277.941 300.645 277.941ZM298.312 277.121H300.645C301.402 277.121 302.07 277.195 302.648 277.344C303.227 277.484 303.711 277.695 304.102 277.977C304.492 278.258 304.785 278.605 304.98 279.02C305.184 279.426 305.285 279.895 305.285 280.426C305.285 281.02 305.164 281.555 304.922 282.031C304.688 282.5 304.352 282.898 303.914 283.227C303.477 283.555 302.953 283.805 302.344 283.977C301.742 284.148 301.074 284.234 300.34 284.234C299.52 284.234 298.723 284.094 297.949 283.812C297.176 283.531 296.539 283.098 296.039 282.512C295.539 281.918 295.289 281.164 295.289 280.25H297.457C297.457 280.633 297.578 280.996 297.82 281.34C298.062 281.684 298.398 281.961 298.828 282.172C299.266 282.383 299.77 282.488 300.34 282.488C300.949 282.488 301.457 282.395 301.863 282.207C302.27 282.02 302.574 281.77 302.777 281.457C302.988 281.145 303.094 280.805 303.094 280.438C303.094 279.961 303 279.578 302.812 279.289C302.625 279 302.336 278.789 301.945 278.656C301.562 278.516 301.07 278.445 300.469 278.445H298.312V277.121ZM310.441 280.566L316.289 271.32H318.469V284H316.289V274.754L310.441 284H308.285V271.32H310.441V280.566ZM327.117 271.32V284H324.938V271.32H327.117ZM331.371 271.32V273.078H320.766V271.32H331.371ZM335.285 275.68H339.094C340.117 275.68 340.98 275.859 341.684 276.219C342.387 276.57 342.918 277.059 343.277 277.684C343.645 278.301 343.828 279.004 343.828 279.793C343.828 280.379 343.727 280.93 343.523 281.445C343.32 281.953 343.016 282.398 342.609 282.781C342.211 283.164 341.715 283.465 341.121 283.684C340.535 283.895 339.859 284 339.094 284H333.703V271.32H335.871V282.219H339.094C339.719 282.219 340.219 282.105 340.594 281.879C340.969 281.652 341.238 281.359 341.402 281C341.566 280.641 341.648 280.266 341.648 279.875C341.648 279.492 341.566 279.117 341.402 278.75C341.238 278.383 340.969 278.078 340.594 277.836C340.219 277.586 339.719 277.461 339.094 277.461H335.285V275.68ZM357.223 277.941H354.891V276.605H357.047C357.648 276.605 358.125 276.531 358.477 276.383C358.828 276.227 359.078 276.012 359.227 275.738C359.375 275.465 359.449 275.145 359.449 274.777C359.449 274.449 359.363 274.141 359.191 273.852C359.027 273.555 358.762 273.316 358.395 273.137C358.027 272.949 357.535 272.855 356.918 272.855C356.418 272.855 355.965 272.945 355.559 273.125C355.152 273.297 354.828 273.535 354.586 273.84C354.352 274.137 354.234 274.473 354.234 274.848H352.066C352.066 274.074 352.285 273.41 352.723 272.855C353.168 272.293 353.758 271.859 354.492 271.555C355.234 271.25 356.043 271.098 356.918 271.098C357.652 271.098 358.309 271.18 358.887 271.344C359.473 271.5 359.969 271.734 360.375 272.047C360.781 272.352 361.09 272.734 361.301 273.195C361.52 273.648 361.629 274.176 361.629 274.777C361.629 275.207 361.527 275.613 361.324 275.996C361.121 276.379 360.828 276.719 360.445 277.016C360.062 277.305 359.598 277.531 359.051 277.695C358.512 277.859 357.902 277.941 357.223 277.941ZM354.891 277.121H357.223C357.98 277.121 358.648 277.195 359.227 277.344C359.805 277.484 360.289 277.695 360.68 277.977C361.07 278.258 361.363 278.605 361.559 279.02C361.762 279.426 361.863 279.895 361.863 280.426C361.863 281.02 361.742 281.555 361.5 282.031C361.266 282.5 360.93 282.898 360.492 283.227C360.055 283.555 359.531 283.805 358.922 283.977C358.32 284.148 357.652 284.234 356.918 284.234C356.098 284.234 355.301 284.094 354.527 283.812C353.754 283.531 353.117 283.098 352.617 282.512C352.117 281.918 351.867 281.164 351.867 280.25H354.035C354.035 280.633 354.156 280.996 354.398 281.34C354.641 281.684 354.977 281.961 355.406 282.172C355.844 282.383 356.348 282.488 356.918 282.488C357.527 282.488 358.035 282.395 358.441 282.207C358.848 282.02 359.152 281.77 359.355 281.457C359.566 281.145 359.672 280.805 359.672 280.438C359.672 279.961 359.578 279.578 359.391 279.289C359.203 279 358.914 278.789 358.523 278.656C358.141 278.516 357.648 278.445 357.047 278.445H354.891V277.121ZM372.152 281.832V275.305C372.152 274.805 372.051 274.371 371.848 274.004C371.652 273.629 371.355 273.34 370.957 273.137C370.559 272.934 370.066 272.832 369.48 272.832C368.934 272.832 368.453 272.926 368.039 273.113C367.633 273.301 367.312 273.547 367.078 273.852C366.852 274.156 366.738 274.484 366.738 274.836H364.57C364.57 274.383 364.688 273.934 364.922 273.488C365.156 273.043 365.492 272.641 365.93 272.281C366.375 271.914 366.906 271.625 367.523 271.414C368.148 271.195 368.844 271.086 369.609 271.086C370.531 271.086 371.344 271.242 372.047 271.555C372.758 271.867 373.312 272.34 373.711 272.973C374.117 273.598 374.32 274.383 374.32 275.328V281.234C374.32 281.656 374.355 282.105 374.426 282.582C374.504 283.059 374.617 283.469 374.766 283.812V284H372.504C372.395 283.75 372.309 283.418 372.246 283.004C372.184 282.582 372.152 282.191 372.152 281.832ZM372.527 276.312L372.551 277.836H370.359C369.742 277.836 369.191 277.887 368.707 277.988C368.223 278.082 367.816 278.227 367.488 278.422C367.16 278.617 366.91 278.863 366.738 279.16C366.566 279.449 366.48 279.789 366.48 280.18C366.48 280.578 366.57 280.941 366.75 281.27C366.93 281.598 367.199 281.859 367.559 282.055C367.926 282.242 368.375 282.336 368.906 282.336C369.57 282.336 370.156 282.195 370.664 281.914C371.172 281.633 371.574 281.289 371.871 280.883C372.176 280.477 372.34 280.082 372.363 279.699L373.289 280.742C373.234 281.07 373.086 281.434 372.844 281.832C372.602 282.23 372.277 282.613 371.871 282.98C371.473 283.34 370.996 283.641 370.441 283.883C369.895 284.117 369.277 284.234 368.59 284.234C367.73 284.234 366.977 284.066 366.328 283.73C365.688 283.395 365.188 282.945 364.828 282.383C364.477 281.812 364.301 281.176 364.301 280.473C364.301 279.793 364.434 279.195 364.699 278.68C364.965 278.156 365.348 277.723 365.848 277.379C366.348 277.027 366.949 276.762 367.652 276.582C368.355 276.402 369.141 276.312 370.008 276.312H372.527ZM386.18 271.32V273.113H379.77V271.32H386.18ZM380.086 271.32V284H377.918V271.32H380.086ZM388.102 271.32V284H385.922V271.32H388.102ZM393.75 273.758V288.875H391.57V271.32H393.562L393.75 273.758ZM402.293 277.555V277.801C402.293 278.723 402.184 279.578 401.965 280.367C401.746 281.148 401.426 281.828 401.004 282.406C400.59 282.984 400.078 283.434 399.469 283.754C398.859 284.074 398.16 284.234 397.371 284.234C396.566 284.234 395.855 284.102 395.238 283.836C394.621 283.57 394.098 283.184 393.668 282.676C393.238 282.168 392.895 281.559 392.637 280.848C392.387 280.137 392.215 279.336 392.121 278.445V277.133C392.215 276.195 392.391 275.355 392.648 274.613C392.906 273.871 393.246 273.238 393.668 272.715C394.098 272.184 394.617 271.781 395.227 271.508C395.836 271.227 396.539 271.086 397.336 271.086C398.133 271.086 398.84 271.242 399.457 271.555C400.074 271.859 400.594 272.297 401.016 272.867C401.438 273.438 401.754 274.121 401.965 274.918C402.184 275.707 402.293 276.586 402.293 277.555ZM400.113 277.801V277.555C400.113 276.922 400.047 276.328 399.914 275.773C399.781 275.211 399.574 274.719 399.293 274.297C399.02 273.867 398.668 273.531 398.238 273.289C397.809 273.039 397.297 272.914 396.703 272.914C396.156 272.914 395.68 273.008 395.273 273.195C394.875 273.383 394.535 273.637 394.254 273.957C393.973 274.27 393.742 274.629 393.562 275.035C393.391 275.434 393.262 275.848 393.176 276.277V279.312C393.332 279.859 393.551 280.375 393.832 280.859C394.113 281.336 394.488 281.723 394.957 282.02C395.426 282.309 396.016 282.453 396.727 282.453C397.312 282.453 397.816 282.332 398.238 282.09C398.668 281.84 399.02 281.5 399.293 281.07C399.574 280.641 399.781 280.148 399.914 279.594C400.047 279.031 400.113 278.434 400.113 277.801ZM404.484 277.801V277.531C404.484 276.617 404.617 275.77 404.883 274.988C405.148 274.199 405.531 273.516 406.031 272.938C406.531 272.352 407.137 271.898 407.848 271.578C408.559 271.25 409.355 271.086 410.238 271.086C411.129 271.086 411.93 271.25 412.641 271.578C413.359 271.898 413.969 272.352 414.469 272.938C414.977 273.516 415.363 274.199 415.629 274.988C415.895 275.77 416.027 276.617 416.027 277.531V277.801C416.027 278.715 415.895 279.562 415.629 280.344C415.363 281.125 414.977 281.809 414.469 282.395C413.969 282.973 413.363 283.426 412.652 283.754C411.949 284.074 411.152 284.234 410.262 284.234C409.371 284.234 408.57 284.074 407.859 283.754C407.148 283.426 406.539 282.973 406.031 282.395C405.531 281.809 405.148 281.125 404.883 280.344C404.617 279.562 404.484 278.715 404.484 277.801ZM406.652 277.531V277.801C406.652 278.434 406.727 279.031 406.875 279.594C407.023 280.148 407.246 280.641 407.543 281.07C407.848 281.5 408.227 281.84 408.68 282.09C409.133 282.332 409.66 282.453 410.262 282.453C410.855 282.453 411.375 282.332 411.82 282.09C412.273 281.84 412.648 281.5 412.945 281.07C413.242 280.641 413.465 280.148 413.613 279.594C413.77 279.031 413.848 278.434 413.848 277.801V277.531C413.848 276.906 413.77 276.316 413.613 275.762C413.465 275.199 413.238 274.703 412.934 274.273C412.637 273.836 412.262 273.492 411.809 273.242C411.363 272.992 410.84 272.867 410.238 272.867C409.645 272.867 409.121 272.992 408.668 273.242C408.223 273.492 407.848 273.836 407.543 274.273C407.246 274.703 407.023 275.199 406.875 275.762C406.727 276.316 406.652 276.906 406.652 277.531ZM423.82 282.453C424.336 282.453 424.812 282.348 425.25 282.137C425.688 281.926 426.047 281.637 426.328 281.27C426.609 280.895 426.77 280.469 426.809 279.992H428.871C428.832 280.742 428.578 281.441 428.109 282.09C427.648 282.73 427.043 283.25 426.293 283.648C425.543 284.039 424.719 284.234 423.82 284.234C422.867 284.234 422.035 284.066 421.324 283.73C420.621 283.395 420.035 282.934 419.566 282.348C419.105 281.762 418.758 281.09 418.523 280.332C418.297 279.566 418.184 278.758 418.184 277.906V277.414C418.184 276.562 418.297 275.758 418.523 275C418.758 274.234 419.105 273.559 419.566 272.973C420.035 272.387 420.621 271.926 421.324 271.59C422.035 271.254 422.867 271.086 423.82 271.086C424.812 271.086 425.68 271.289 426.422 271.695C427.164 272.094 427.746 272.641 428.168 273.336C428.598 274.023 428.832 274.805 428.871 275.68H426.809C426.77 275.156 426.621 274.684 426.363 274.262C426.113 273.84 425.77 273.504 425.332 273.254C424.902 272.996 424.398 272.867 423.82 272.867C423.156 272.867 422.598 273 422.145 273.266C421.699 273.523 421.344 273.875 421.078 274.32C420.82 274.758 420.633 275.246 420.516 275.785C420.406 276.316 420.352 276.859 420.352 277.414V277.906C420.352 278.461 420.406 279.008 420.516 279.547C420.625 280.086 420.809 280.574 421.066 281.012C421.332 281.449 421.688 281.801 422.133 282.066C422.586 282.324 423.148 282.453 423.82 282.453ZM433.09 275.68H436.898C437.922 275.68 438.785 275.859 439.488 276.219C440.191 276.57 440.723 277.059 441.082 277.684C441.449 278.301 441.633 279.004 441.633 279.793C441.633 280.379 441.531 280.93 441.328 281.445C441.125 281.953 440.82 282.398 440.414 282.781C440.016 283.164 439.52 283.465 438.926 283.684C438.34 283.895 437.664 284 436.898 284H431.508V271.32H433.676V282.219H436.898C437.523 282.219 438.023 282.105 438.398 281.879C438.773 281.652 439.043 281.359 439.207 281C439.371 280.641 439.453 280.266 439.453 279.875C439.453 279.492 439.371 279.117 439.207 278.75C439.043 278.383 438.773 278.078 438.398 277.836C438.023 277.586 437.523 277.461 436.898 277.461H433.09V275.68ZM446.145 271.32V284H443.977V271.32H446.145Z" fill="#D32F2F"/>
<path d="M419 239.84C419 239.926 325.196 240 209.509 240C93.8229 240 0 239.926 0 239.84C0 239.754 93.7859 239.68 209.509 239.68C325.232 239.68 419 239.754 419 239.84Z" fill="#263238"/>
<path d="M32.7061 169.468C32.8722 168.952 52.0466 106.294 52.0466 106.294L51.5666 98.5129L56.5818 90.2578L62.8091 92.3185L61.9599 101.545L57.5294 108.275L38.2442 171.271L32.7061 169.468Z" fill="#E0E0E0"/>
<path d="M32.7061 169.468L33.0753 169.573L34.1398 169.905L38.2442 171.191L38.1765 171.228C41.2964 161.01 48.5083 137.365 57.394 108.25L61.8184 101.527V101.595C62.0892 98.6482 62.3784 95.5172 62.6676 92.3677L62.7783 92.5338L62.2615 92.3677L56.551 90.4792L56.7356 90.4116L51.7205 98.6667V98.5744C51.8805 101.228 52.0384 103.821 52.1943 106.356V106.411C46.5884 124.613 41.7333 140.379 38.2812 151.599C36.5459 157.215 35.1552 161.687 34.2014 164.769C33.7275 166.307 33.3522 167.494 33.0999 168.306L32.8107 169.222L32.7061 169.536C32.7269 169.434 32.7536 169.334 32.786 169.235C32.8476 169.019 32.9337 168.718 33.0507 168.33C33.2968 167.518 33.666 166.337 34.1091 164.812C35.0382 161.736 36.392 157.258 38.0904 151.648C41.5241 140.391 46.3361 124.582 51.8989 106.319V106.374C51.7389 103.84 51.5769 101.246 51.4128 98.5928V98.5436V98.5006L56.4279 90.2455L56.4894 90.1348L56.6125 90.1778L62.3291 92.0601L62.8399 92.2324L62.963 92.2693V92.3984C62.6737 95.5664 62.3845 98.6974 62.1076 101.625V101.669V101.699L57.6832 108.429V108.386C48.7052 137.438 41.4318 161.053 38.2812 171.271V171.326H38.2258L34.1152 169.967L33.0753 169.616L32.7061 169.468Z" fill="#263238"/>
<path d="M28.0849 172.501L19.47 184.14L7.4275 227.814C7.4275 227.814 5.69835 236.721 15.5378 239.249C26.6142 242.091 29.1371 233.627 29.1371 233.627L40.8289 190.98L40.7058 176.192L43.5918 172.938C43.7223 172.786 43.8138 172.605 43.8585 172.41C43.9031 172.215 43.8995 172.012 43.848 171.819C43.7965 171.626 43.6986 171.448 43.5628 171.301C43.427 171.154 43.2574 171.042 43.0687 170.976L29.2356 166.411C29.0433 166.351 28.8393 166.339 28.6413 166.377C28.4433 166.414 28.2575 166.499 28.1002 166.625C27.9428 166.75 27.8188 166.913 27.7388 167.098C27.6589 167.282 27.6256 167.484 27.6418 167.685L28.0849 172.501Z" fill="#C53F3F"/>
<path d="M40.7795 176.702C40.7487 176.789 37.8504 175.946 34.306 174.82C30.7615 173.694 27.9001 172.71 27.9309 172.624C27.9617 172.538 30.8538 173.387 34.4044 174.513C37.955 175.638 40.8041 176.616 40.7795 176.702Z" fill="#263238"/>
<path d="M40.8537 190.986C40.5621 190.967 40.2733 190.918 39.9922 190.838C39.4384 190.721 38.6507 190.53 37.6723 190.284C35.7155 189.798 33.0326 189.054 30.1096 188.119C27.1867 187.184 24.5715 186.237 22.6823 185.505C21.747 185.136 20.9901 184.828 20.4732 184.607C20.1988 184.508 19.935 184.382 19.6855 184.231C19.9723 184.29 20.2526 184.377 20.5224 184.49L22.7623 185.289C24.6576 185.966 27.279 186.883 30.2019 187.812C33.1249 188.74 35.7955 189.522 37.7277 190.069L40.023 190.715C40.3076 190.78 40.5856 190.87 40.8537 190.986Z" fill="#263238"/>
<g opacity="0.3">
<path d="M24.6569 188.77L24.3556 188.682C23.279 188.368 22.1518 188.986 21.8379 190.062L11.1778 226.611C10.8639 227.687 11.4822 228.814 12.5588 229.128L12.86 229.216C13.9367 229.53 15.0639 228.912 15.3778 227.836L26.0379 191.287C26.3518 190.211 25.7335 189.084 24.6569 188.77Z" fill="black"/>
</g>
<g opacity="0.3">
<path d="M30.8298 190.771L30.5285 190.683C29.4519 190.369 28.3246 190.987 28.0107 192.063L17.3506 228.612C17.0367 229.688 17.655 230.815 18.7316 231.129L19.0329 231.217C20.1095 231.531 21.2368 230.913 21.5507 229.837L32.2107 193.288C32.5247 192.212 31.9064 191.085 30.8298 190.771Z" fill="black"/>
</g>
<g opacity="0.3">
<path d="M36.3994 192.612L36.0985 192.523C35.0231 192.204 33.8934 192.818 33.5752 193.893L22.7686 230.399C22.4504 231.474 23.0641 232.603 24.1395 232.921L24.4404 233.011C25.5157 233.329 26.6454 232.715 26.9637 231.64L37.7702 195.135C38.0885 194.06 37.4747 192.93 36.3994 192.612Z" fill="black"/>
</g>
<path d="M57.4856 108.282C56.5446 108.125 55.6241 107.863 54.7411 107.501C53.8243 107.243 52.9405 106.88 52.1074 106.418C53.0455 106.58 53.9636 106.842 54.8457 107.199C55.7642 107.458 56.65 107.822 57.4856 108.282Z" fill="#263238"/>
<path d="M62.8212 92.3182C62.7751 92.6111 62.703 92.8993 62.6058 93.1794C62.4273 93.7945 62.1935 94.5696 61.9043 95.5292L59.4429 103.526L59.3936 103.68L59.2398 103.631L56.403 102.64L53.4863 101.619L53.3447 101.57L53.3878 101.428C54.2739 98.2666 55.0554 95.4923 55.6338 93.4316C55.9169 92.4782 56.1446 91.6908 56.323 91.1003C56.3953 90.8144 56.49 90.5347 56.6061 90.2637C56.5724 90.5575 56.5127 90.8478 56.4276 91.131L55.8123 93.487C55.2646 95.5354 54.5262 98.3158 53.677 101.484L53.5786 101.293L56.5015 102.314L59.3321 103.304L59.129 103.409L61.7135 95.4677C62.0335 94.5142 62.3289 93.7392 62.5012 93.1486C62.5842 92.8633 62.6913 92.5855 62.8212 92.3182Z" fill="#263238"/>
<path d="M375.668 68.2123C379.834 63.1928 384 58.1241 387.249 52.4648C390.498 46.8056 392.787 40.4821 392.953 33.9617C392.953 32.9713 392.553 26.1126 391.599 25.8357C390.923 25.6389 390.455 31.698 389.901 32.1347C384.584 36.293 381.132 42.4628 379.145 48.9094C377.274 55.195 376.108 61.6691 375.668 68.2123Z" fill="#263238"/>
<path d="M321.399 106.362C323.061 102.056 331.245 80.5267 331.202 80.5267C331.159 80.5267 317.104 73.1943 321.972 58.2589C324.31 51.0434 330.334 36.5816 335.934 23.5531C338.841 16.803 344.183 11.394 350.897 8.40207C357.612 5.41012 365.207 5.05447 372.172 7.40586L373.606 7.89182C388.781 14.0431 392.067 30.3257 385.501 45.3165L355.349 115.134L328.925 106.971L321.399 106.362Z" fill="#FFBF9D"/>
<path d="M331.208 80.5391C331.208 80.5391 340.395 84.2299 352.505 81.351C352.505 81.351 344.124 90.8179 329.737 84.4698L331.208 80.5391Z" fill="#FF9A6C"/>
<path d="M335.91 37.9286C335.718 38.4804 335.749 39.0853 335.996 39.6148C336.243 40.1442 336.686 40.5566 337.233 40.7643C337.496 40.8766 337.779 40.9353 338.065 40.9369C338.351 40.9384 338.634 40.8829 338.898 40.7734C339.163 40.664 339.402 40.5029 339.603 40.2995C339.805 40.0962 339.963 39.8548 340.069 39.5894C340.263 39.0377 340.233 38.4321 339.986 37.9022C339.738 37.3723 339.294 36.9601 338.746 36.7537C338.484 36.6405 338.201 36.5811 337.914 36.5792C337.628 36.5772 337.344 36.6326 337.08 36.7421C336.815 36.8517 336.576 37.0131 336.375 37.2169C336.174 37.4207 336.015 37.6627 335.91 37.9286Z" fill="#263238"/>
<path d="M337.005 30.8121C337.177 31.1812 339.189 30.5291 341.472 31.3104C343.755 32.0916 345.048 33.7709 345.386 33.5987C345.552 33.5187 345.454 32.9282 344.9 32.1469C344.144 31.1281 343.091 30.3692 341.885 29.9755C340.691 29.5634 339.397 29.5462 338.193 29.9263C337.306 30.2277 336.919 30.646 337.005 30.8121Z" fill="#263238"/>
<path d="M355.964 45.9934C355.77 46.5443 355.801 47.149 356.048 47.6779C356.295 48.2068 356.74 48.6178 357.287 48.823C357.55 48.9362 357.833 48.9955 358.119 48.9975C358.405 48.9995 358.689 48.944 358.953 48.8345C359.218 48.725 359.458 48.5635 359.659 48.3597C359.86 48.156 360.018 47.914 360.124 47.6481C360.315 47.0962 360.285 46.4913 360.038 45.9619C359.791 45.4324 359.347 45.02 358.801 44.8123C358.537 44.7001 358.254 44.6418 357.968 44.6406C357.681 44.6395 357.398 44.6956 357.133 44.8056C356.869 44.9157 356.629 45.0774 356.429 45.2814C356.228 45.4854 356.07 45.7274 355.964 45.9934Z" fill="#263238"/>
<path d="M359.089 39.2945C359.256 39.6636 361.274 39.0177 363.557 39.7928C365.84 40.5679 367.126 42.2533 367.471 42.0872C367.631 42.0011 367.538 41.4106 366.984 40.6355C366.227 39.6151 365.171 38.8544 363.963 38.458C362.77 38.0446 361.475 38.0273 360.271 38.4087C359.409 38.7102 359.003 39.1285 359.089 39.2945Z" fill="#263238"/>
<path d="M344.955 54.0889C345.011 53.9659 343.669 53.24 341.466 52.1697C340.906 51.9114 340.389 51.6099 340.426 51.1732C340.463 50.7364 340.888 50.1582 341.399 49.58L344.629 45.717C349.164 40.1808 352.66 35.5857 352.432 35.4012C352.204 35.2167 348.352 39.5472 343.817 45.0649C342.715 46.4305 341.657 47.7285 340.654 48.9772C340.211 49.5923 339.577 50.2074 339.577 51.167C339.593 51.4007 339.662 51.6277 339.778 51.8312C339.894 52.0346 340.055 52.2092 340.248 52.342C340.543 52.5376 340.862 52.6967 341.196 52.8156C343.46 53.7198 344.9 54.2181 344.955 54.0889Z" fill="#263238"/>
<path d="M351.152 57.9394C350.783 57.7979 349.921 60.2769 347.226 61.3165C344.531 62.3561 341.952 61.1996 341.817 61.5379C341.731 61.6794 342.248 62.2146 343.349 62.6267C344.797 63.1348 346.378 63.1196 347.817 62.5837C349.195 62.0634 350.317 61.0293 350.949 59.6987C351.392 58.7022 351.324 57.9825 351.152 57.9394Z" fill="#263238"/>
<path d="M362.345 30.068C362.345 30.7631 364.745 31.2429 367.317 32.4671C369.889 33.6912 371.815 35.1613 372.357 34.7246C372.603 34.5093 372.424 33.7957 371.741 32.8792C370.825 31.7462 369.661 30.8374 368.34 30.2223C367.019 29.6072 365.574 29.3019 364.117 29.3299C363.009 29.416 362.351 29.742 362.345 30.068Z" fill="#263238"/>
<path d="M340.518 23.5351C340.746 24.1932 342.499 24.1502 344.401 24.7653C346.302 25.3805 347.785 26.297 348.333 25.8787C348.585 25.6696 348.511 25.0667 347.976 24.3347C347.233 23.4286 346.237 22.7632 345.116 22.4226C343.994 22.0821 342.797 22.0818 341.675 22.4217C340.826 22.76 340.426 23.2213 340.518 23.5351Z" fill="#263238"/>
<path d="M380.541 55.9336C380.837 55.9336 391.784 56.358 388.03 66.3909C384.276 76.4237 374.942 70.6045 375.034 70.3092C375.126 70.014 380.541 55.9336 380.541 55.9336Z" fill="#FFBF9D"/>
<path d="M379.532 67.6707C379.587 67.6707 379.661 67.8614 379.907 68.1075C380.255 68.4431 380.722 68.6287 381.205 68.6242C382.436 68.6242 383.938 67.277 384.664 65.4808C385.014 64.6278 385.167 63.707 385.113 62.7866C385.139 62.4354 385.078 62.0833 384.935 61.7614C384.792 61.4395 384.572 61.1578 384.294 60.9412C384.112 60.8071 383.888 60.7426 383.662 60.7596C383.436 60.7765 383.224 60.8736 383.064 61.0334C382.824 61.2672 382.811 61.4886 382.756 61.4886C382.701 61.4886 382.602 61.2364 382.836 60.8735C382.983 60.6488 383.199 60.4781 383.451 60.3876C383.806 60.2825 384.188 60.32 384.516 60.4921C384.895 60.7312 385.207 61.0628 385.422 61.4555C385.637 61.8483 385.749 62.2895 385.747 62.7374C385.846 63.7692 385.694 64.8097 385.304 65.77C384.479 67.7691 382.738 69.2824 381.125 69.1593C380.826 69.1354 380.535 69.0452 380.274 68.8952C380.013 68.7452 379.789 68.5392 379.618 68.292C379.458 67.9291 379.489 67.6769 379.532 67.6707Z" fill="#FF9A6C"/>
<path d="M348.777 9.44864C347.497 7.93542 354.383 4.52758 359.066 4.26923C366.142 3.85094 375.994 5.69633 380.941 9.40558C386.91 13.8653 391.187 19.3277 392.209 26.7031C393.23 34.0786 391.772 41.657 388.91 48.5342C388.036 50.6318 386.966 52.754 385.144 54.1134C382.898 55.7927 379.674 56.1557 378.615 59.2621C378.44 59.8295 378.154 60.3564 377.774 60.8126C377.394 61.2687 376.927 61.6449 376.4 61.9195C373.816 63.1497 372.277 60.4739 371.951 58.2287C371.256 53.4552 372.806 48.6757 374.339 44.0806C375.428 40.8327 376.554 37.5172 378.646 34.7921C379.778 33.3096 381.169 32.0363 382.221 30.4862C383.274 28.9361 383.957 26.9984 383.452 25.2083C383.324 24.8136 383.157 24.4325 382.954 24.0703C382.024 22.3151 380.643 20.8386 378.954 19.7922C377.265 18.7459 375.328 18.1673 373.342 18.1159C366.924 17.9498 356.112 17.2301 354.358 14.3513C351.792 10.2053 351.614 8.0769 351.614 8.0769L348.777 9.44864Z" fill="#263238"/>
<path d="M382.227 3.26621C382.873 3.59223 397.993 12.9299 397.894 26.549C397.796 40.168 395.304 43.502 395.304 43.502C395.811 44.1263 396.225 44.8204 396.534 45.5627C396.94 46.5962 394.62 50.1024 392.633 48.9337C379.058 36.3419 360.351 29.1079 339.011 22.483L322.913 16.7192C318.2 15.6919 317.024 13.9388 319.326 13.4651C321.092 13.096 335.713 12.3579 335.713 12.3579L338.869 11.386L348.715 4.42881C348.715 4.42881 348.334 2.85407 350.334 2.34351C352.333 1.83295 369.514 -3.19269 382.227 3.26621Z" fill="#C53F3F"/>
<path d="M338.857 11.4111C338.857 11.4111 339.073 11.4973 339.473 11.6326L341.319 12.2108C342.906 12.6845 345.165 13.4841 347.946 14.5053C355.143 17.274 362.084 20.666 368.69 24.6426C375.292 28.6359 381.661 33.0022 387.766 37.7204C390.129 39.5104 392.005 40.999 393.304 42.0263L394.811 43.2012C395.156 43.4657 395.347 43.5949 395.347 43.5949C395.347 43.5949 395.181 43.4349 394.842 43.152L393.372 41.9217C392.085 40.876 390.221 39.3628 387.876 37.5543C381.793 32.7806 375.422 28.3844 368.8 24.3904C362.174 20.399 355.196 17.0242 347.952 14.3084C344.971 13.1911 341.936 12.2241 338.857 11.4111Z" fill="#263238"/>
<g opacity="0.3">
<path d="M394.744 15.6424C394.744 15.6424 378.055 6.71064 368.837 7.79327L369.92 7.64564L361.305 8.3592C359.847 8.48222 358.179 8.52528 357.183 7.4611C357.183 7.4611 362.407 5.24662 370.659 5.28968C378.911 5.33274 391.021 8.26077 394.744 15.6424Z" fill="black"/>
</g>
<path d="M394.965 15.7903C394.595 15.2335 394.183 14.705 393.734 14.2094C392.532 12.8374 391.173 11.611 389.685 10.5555C387.482 8.97799 385.058 7.73431 382.492 6.86474C379.364 5.71325 376.025 5.24955 372.702 5.50529C370.996 5.67716 369.302 5.95658 367.631 6.34187C366.019 6.7048 364.45 6.95701 362.967 7.3876C361.607 7.83852 360.211 8.17191 358.795 8.38411C357.555 8.50661 356.304 8.34028 355.14 7.89816C350.777 6.4649 348.42 4.65026 348.715 4.44727C348.731 4.624 348.812 4.78848 348.943 4.90862C349.297 5.25483 349.694 5.55455 350.124 5.80056C351.691 6.73766 353.353 7.50281 355.084 8.0827C356.274 8.5427 357.554 8.72368 358.825 8.61171C360.258 8.4116 361.67 8.08848 363.047 7.64595C364.499 7.24612 366.087 6.97546 367.699 6.61253C369.359 6.24295 371.04 5.97182 372.732 5.80056C376.016 5.55352 379.315 6.00425 382.412 7.12309C384.959 7.97499 387.371 9.18677 389.575 10.7216C391.061 11.7558 392.429 12.9501 393.654 14.2832C394.091 14.7569 394.418 15.1383 394.627 15.4028C394.836 15.6673 394.965 15.7903 394.965 15.7903Z" fill="#263238"/>
<g opacity="0.3">
<path d="M397.698 32.1777C394.535 31.0643 392.418 29.4219 389.507 27.6503C386.43 25.768 383.286 24.0456 380.277 22.0157C377.994 20.4779 375.231 18.8539 374.216 16.4795C373.879 17.0555 373.697 17.7089 373.687 18.376C373.677 19.0432 373.84 19.7016 374.16 20.2872C374.806 21.5174 377.545 23.7135 378.714 24.507C385.366 29.0282 389.987 32.1162 397.421 35.2595C397.579 34.2414 397.669 33.2139 397.691 32.1838" fill="black"/>
</g>
<path d="M397.857 25.0421C399.568 26.5984 400.596 27.6072 400.066 29.348C399.629 30.7874 398.743 32.4237 397.254 32.1961C396.814 32.0938 396.396 31.9102 396.023 31.6548L375.643 19.7274C374.905 19.4043 374.307 18.8283 373.957 18.1034C373.551 16.947 374.572 15.6798 375.748 15.3599C376.923 15.04 378.178 15.3599 379.347 15.7659C385.981 17.9127 392.03 21.2098 397.857 25.0359" fill="#C53F3F"/>
<path d="M374.178 18.546C373.99 18.1904 373.901 17.7911 373.919 17.3895C373.965 16.8475 374.162 16.3293 374.489 15.8941C374.815 15.459 375.257 15.1245 375.765 14.929C377.07 14.4861 378.799 14.7813 380.497 15.4703C382.196 16.1592 384.109 16.9405 386.035 17.8324C389.381 19.3156 392.587 21.0943 395.617 23.1471C396.773 23.9407 397.666 24.6419 398.287 25.1279L398.989 25.6999C399.068 25.7705 399.155 25.8324 399.247 25.8845C399.247 25.8845 399.179 25.7984 399.026 25.6569L398.355 25.0418C397.739 24.5312 396.884 23.8115 395.733 22.9811C392.724 20.8703 389.515 19.0593 386.152 17.574C384.196 16.6759 382.306 15.9009 380.571 15.2181C378.836 14.5353 377.057 14.24 375.648 14.7383C375.114 14.9512 374.653 15.3133 374.319 15.7812C373.985 16.2491 373.793 16.8031 373.765 17.3772C373.757 17.6854 373.823 17.9912 373.956 18.2691C374.013 18.3736 374.088 18.4673 374.178 18.546Z" fill="#263238"/>
<path d="M345.626 6.6377L359.477 11.0728L356.985 14.5483L342.137 9.09823L345.626 6.6377Z" fill="white"/>
<path d="M362.241 25.9835C362.272 25.9097 356.444 22.9078 349.214 19.3278C341.984 15.7477 336.076 12.8504 336.076 12.9242C336.076 12.998 341.873 15.9999 349.103 19.58C356.334 23.16 362.204 26.0512 362.241 25.9835Z" fill="#263238"/>
<path d="M365.729 100.611L365.914 91.5194L334.789 103.078C334.789 103.078 329.036 84.3962 329.036 83.5165L322.138 87.8225L310.674 82.9014L299.21 77.2422L276.023 117.841L251.698 189.529L309 227.741L351.496 182.221L377.341 142.852L391.543 117.927L365.729 100.611Z" fill="#C53F3F"/>
<path d="M332.021 102.943C331.984 102.641 331.97 102.336 331.978 102.032C331.978 101.417 331.978 100.544 331.941 99.4857L332.082 99.5719C328.662 101.242 325.505 103.403 322.711 105.988L322.464 106.221V105.883C322.464 105.477 322.415 105.047 322.391 104.61C322.138 100.15 321.929 96.1148 321.775 93.1868C321.714 91.7597 321.665 90.5909 321.628 89.7236C321.628 89.3463 321.628 89.0326 321.628 88.7824C321.587 88.7748 321.551 88.7522 321.526 88.7192C321.501 88.6861 321.489 88.645 321.493 88.6038C321.497 88.5626 321.516 88.5243 321.546 88.4964C321.577 88.4686 321.617 88.4531 321.658 88.4531C321.7 88.4531 321.74 88.4686 321.77 88.4964C321.801 88.5243 321.82 88.5626 321.824 88.6038C321.828 88.645 321.816 88.6861 321.791 88.7192C321.766 88.7522 321.73 88.7748 321.689 88.7824C321.689 89.0285 321.738 89.3422 321.775 89.7174C321.837 90.5848 321.917 91.7535 322.015 93.1745C322.212 96.0963 322.452 100.132 322.704 104.591C322.704 105.028 322.754 105.459 322.772 105.865L322.508 105.754C325.323 103.152 328.529 101.005 332.009 99.3935L332.156 99.332V99.4857C332.156 100.544 332.113 101.399 332.101 102.032C332.097 102.337 332.07 102.642 332.021 102.943Z" fill="#263238"/>
<path d="M362.862 101.048C362.751 101.125 362.631 101.189 362.505 101.239L361.465 101.737L357.613 103.502L344.838 109.211L338.771 111.893L338.513 112.003L338.562 111.727C339.063 108.843 339.297 105.919 339.263 102.992L339.405 103.078L336.531 104.474L335.762 104.831C335.59 104.911 335.497 104.948 335.491 104.935C335.567 104.874 335.649 104.822 335.737 104.782L336.482 104.376L339.319 102.899L339.454 102.826V102.992C339.541 105.943 339.335 108.896 338.839 111.807L338.63 111.64L344.691 108.946L357.502 103.318L361.404 101.645L362.468 101.208C362.593 101.139 362.725 101.085 362.862 101.048Z" fill="#263238"/>
<path d="M308.446 55.5527H74.0585C69.1068 55.5527 65.0928 59.5654 65.0928 64.5152V226.75C65.0928 231.7 69.1068 235.713 74.0585 235.713H308.446C313.398 235.713 317.412 231.7 317.412 226.75V64.5152C317.412 59.5654 313.398 55.5527 308.446 55.5527Z" fill="#455A64"/>
<path d="M55.2285 224.074H328.599V228.891C328.599 231.795 327.445 234.58 325.391 236.633C323.337 238.686 320.551 239.84 317.646 239.84H66.1818C63.2768 239.84 60.4908 238.686 58.4367 236.633C56.3825 234.58 55.2285 231.795 55.2285 228.891V224.074Z" fill="#455A64"/>
<path d="M309.936 62.7129H71.8682V214.854H309.936V62.7129Z" fill="#263238"/>
<path d="M166.38 222.389L169.77 228.214H217.503L220.654 222.389H166.38Z" fill="#263238"/>
<path d="M303.505 67.8613H78.7778C77.6665 67.8613 76.7656 68.7619 76.7656 69.8728V212.35C76.7656 213.461 77.6665 214.361 78.7778 214.361H303.505C304.616 214.361 305.517 213.461 305.517 212.35V69.8728C305.517 68.7619 304.616 67.8613 303.505 67.8613Z" fill="#EBEBEB"/>
<path d="M305.278 214.577H76.5264L76.7664 78.8105H305.278V214.577Z" fill="#FAFAFA"/>
<path d="M95.9893 73.5205C95.9712 73.8883 95.8456 74.2427 95.6281 74.5399C95.4105 74.8371 95.1105 75.0639 94.7652 75.1923C94.42 75.3208 94.0446 75.3451 93.6856 75.2624C93.3266 75.1797 92.9998 74.9935 92.7456 74.727C92.4914 74.4604 92.3211 74.1252 92.2556 73.7628C92.1901 73.4004 92.2324 73.0268 92.3772 72.6882C92.5221 72.3496 92.7631 72.0609 93.0704 71.8578C93.3777 71.6548 93.7379 71.5463 94.1063 71.5459C94.6177 71.5588 95.1031 71.7739 95.4561 72.1441C95.8091 72.5142 96.0008 73.0092 95.9893 73.5205Z" fill="#263238"/>
<path d="M84.5684 73.5205C84.5503 73.8883 84.4247 74.2427 84.2072 74.5399C83.9896 74.8371 83.6896 75.0639 83.3443 75.1923C82.9991 75.3208 82.6237 75.3451 82.2647 75.2624C81.9057 75.1797 81.5789 74.9935 81.3247 74.727C81.0705 74.4604 80.9002 74.1252 80.8347 73.7628C80.7692 73.4004 80.8115 73.0268 80.9563 72.6882C81.1012 72.3496 81.3422 72.0609 81.6495 71.8578C81.9568 71.6548 82.317 71.5463 82.6854 71.5459C83.1968 71.5588 83.6822 71.7739 84.0352 72.1441C84.3882 72.5142 84.5799 73.0092 84.5684 73.5205Z" fill="#263238"/>
<path d="M90.4385 73.5205C90.4204 73.8883 90.2949 74.2427 90.0773 74.5399C89.8597 74.8371 89.5597 75.0639 89.2144 75.1923C88.8692 75.3208 88.4938 75.3451 88.1348 75.2624C87.7759 75.1797 87.449 74.9935 87.1949 74.727C86.9407 74.4604 86.7703 74.1252 86.7048 73.7628C86.6393 73.4004 86.6816 73.0268 86.8264 72.6882C86.9713 72.3496 87.2123 72.0609 87.5196 71.8578C87.827 71.6548 88.1871 71.5463 88.5555 71.5459C89.0669 71.5588 89.5524 71.7739 89.9054 72.1441C90.2583 72.5142 90.4501 73.0092 90.4385 73.5205Z" fill="#263238"/>
<path d="M315.246 222.389C315.246 222.488 259.249 222.562 190.176 222.562C121.102 222.562 65.0928 222.488 65.0928 222.389C65.0928 222.291 121.09 222.211 190.176 222.211C259.261 222.211 315.246 222.291 315.246 222.389Z" fill="#263238"/>
<path d="M166.571 104.837C170.29 102.592 174.292 100.855 178.471 99.6695L180.933 87.8897L200.833 87.5391L203.701 99.2266C207.918 100.268 211.978 101.865 215.774 103.975L225.835 97.3873L240.154 111.209L233.927 121.501C236.173 125.22 237.912 129.223 239.096 133.403L250.874 135.864L251.225 155.757L239.533 158.624C238.489 162.828 236.89 166.874 234.776 170.656L241.373 180.713L227.546 195.027L217.263 188.796C213.542 191.041 209.538 192.779 205.356 193.963L202.895 205.743L182.988 206.087L180.127 194.4C175.92 193.37 171.871 191.783 168.084 189.682L158.023 196.276L143.704 182.454L149.938 172.175C147.689 168.456 145.949 164.453 144.762 160.272L132.985 157.812L132.634 137.918L144.326 135.052C145.366 130.836 146.963 126.777 149.076 122.983L142.486 112.926L156.313 98.6115L166.571 104.837ZM177.179 131.343C174.246 134.38 172.28 138.218 171.529 142.372C170.778 146.527 171.276 150.81 172.961 154.681C174.645 158.553 177.44 161.838 180.992 164.121C184.544 166.404 188.693 167.584 192.916 167.51C197.138 167.436 201.244 166.112 204.713 163.705C208.183 161.299 210.861 157.918 212.409 153.99C213.956 150.062 214.304 145.764 213.408 141.639C212.512 137.513 210.412 133.746 207.375 130.814C205.356 128.867 202.974 127.338 200.364 126.312C197.754 125.286 194.967 124.784 192.163 124.835C189.359 124.886 186.593 125.488 184.022 126.608C181.451 127.728 179.126 129.343 177.179 131.361V131.343Z" fill="#E0E0E0"/>
<path d="M246.08 112.446C246.353 110.974 246.818 109.545 247.465 108.195L245.003 104.873L249.458 99.6571L253.15 101.589C254.382 100.74 255.721 100.06 257.132 99.5649L257.747 95.4619L264.584 94.9268L265.814 98.8821C267.287 99.154 268.717 99.6215 270.067 100.272L273.389 97.8117L278.608 102.271L276.675 105.962C277.527 107.194 278.21 108.535 278.706 109.948L282.804 110.563L283.34 117.404L279.383 118.634C279.113 120.107 278.645 121.537 277.992 122.885L280.454 126.212L275.999 131.423L272.306 129.491C271.074 130.343 269.733 131.025 268.319 131.521L267.704 135.624L260.867 136.159L259.636 132.198C258.164 131.928 256.733 131.462 255.384 130.814L252.055 133.274L246.849 128.765L248.781 125.074C247.931 123.842 247.248 122.501 246.751 121.088L242.653 120.473L242.117 113.633L246.074 112.403L246.08 112.446ZM255.353 114.519C255.207 116.057 255.548 117.602 256.327 118.937C257.106 120.272 258.285 121.328 259.697 121.958C261.108 122.587 262.682 122.758 264.196 122.446C265.71 122.133 267.088 121.354 268.135 120.218C269.183 119.081 269.847 117.645 270.034 116.111C270.222 114.577 269.923 113.023 269.18 111.668C268.437 110.313 267.287 109.225 265.893 108.558C264.499 107.891 262.93 107.678 261.409 107.949C259.82 108.232 258.368 109.028 257.274 110.214C256.18 111.401 255.506 112.913 255.353 114.519Z" fill="#E0E0E0"/>
<path d="M96.2232 181.113C96.273 179.346 96.5607 177.593 97.0786 175.903L93.5895 172.501L97.8601 165.624L102.488 167.223C103.78 166.011 105.229 164.977 106.795 164.148L106.758 159.258L114.647 157.412L116.782 161.81C118.55 161.86 120.303 162.147 121.994 162.665L125.434 159.178L132.314 163.447L130.714 168.072C131.927 169.364 132.961 170.812 133.791 172.378L138.683 172.341L140.529 180.221L136.123 182.343C136.068 184.111 135.778 185.863 135.261 187.554L138.75 190.986L134.48 197.869L129.852 196.27C128.561 197.484 127.112 198.518 125.545 199.346L125.582 204.236L117.699 206.081L115.558 201.683C113.795 201.622 112.048 201.324 110.364 200.797L106.93 204.285L100.045 200.016L101.644 195.39C100.432 194.098 99.3969 192.65 98.5677 191.084L93.6449 191.121L91.7988 183.242L96.1986 181.101L96.2232 181.113ZM107.626 183.328C108.021 184.998 108.903 186.515 110.16 187.685C111.416 188.855 112.992 189.626 114.687 189.902C116.382 190.177 118.121 189.944 119.684 189.232C121.247 188.521 122.563 187.362 123.468 185.902C124.372 184.443 124.824 182.748 124.765 181.032C124.706 179.316 124.14 177.656 123.139 176.262C122.137 174.867 120.744 173.801 119.136 173.197C117.528 172.594 115.778 172.48 114.105 172.87C112.99 173.13 111.938 173.608 111.008 174.275C110.078 174.943 109.289 175.788 108.687 176.762C108.085 177.735 107.681 178.818 107.499 179.948C107.317 181.078 107.36 182.233 107.626 183.346V183.328Z" fill="#E0E0E0"/>
<path d="M110.382 115.405C110.583 114.294 110.935 113.216 111.428 112.2L109.582 109.69L112.942 105.76L115.711 107.217C116.64 106.577 117.65 106.062 118.714 105.686L119.169 102.61L124.326 102.204L125.249 105.187C126.359 105.394 127.437 105.746 128.455 106.233L130.966 104.388L134.892 107.746L133.439 110.515C134.081 111.442 134.594 112.452 134.965 113.516L138.042 113.965L138.448 119.12L135.47 120.018C135.266 121.128 134.917 122.205 134.43 123.223L136.276 125.727L132.916 129.657L130.147 128.2C129.22 128.843 128.21 129.358 127.144 129.731L126.695 132.807L121.538 133.207L120.609 130.223C119.498 130.022 118.42 129.67 117.403 129.178L114.899 131.023L110.967 127.664L112.419 124.896C111.777 123.969 111.264 122.959 110.893 121.895L107.816 121.439L107.416 116.284L110.4 115.362L110.382 115.405ZM117.366 117.908C117.453 118.999 117.862 120.039 118.54 120.898C119.218 121.757 120.135 122.396 121.176 122.734C122.217 123.072 123.335 123.094 124.388 122.797C125.442 122.5 126.384 121.898 127.095 121.067C127.807 120.236 128.256 119.212 128.386 118.126C128.516 117.04 128.321 115.939 127.826 114.964C127.331 113.988 126.558 113.181 125.604 112.644C124.65 112.107 123.559 111.865 122.468 111.948C121.741 112.003 121.032 112.201 120.381 112.531C119.731 112.861 119.153 113.315 118.679 113.869C118.205 114.423 117.845 115.065 117.62 115.758C117.394 116.451 117.308 117.182 117.366 117.908Z" fill="#EBEBEB"/>
<path d="M246.339 170.921C246.517 169.967 246.819 169.04 247.237 168.165L245.631 166.012L248.517 162.635L250.899 163.865C251.696 163.313 252.563 162.87 253.477 162.549L253.865 159.891L258.295 159.547L259.089 162.112C260.044 162.287 260.971 162.589 261.846 163.01L264 161.405L267.378 164.29L266.147 166.664C266.7 167.463 267.142 168.331 267.464 169.248L270.122 169.635L270.467 174.064L267.901 174.858C267.726 175.812 267.424 176.739 267.003 177.613L268.609 179.766L265.723 183.137L263.347 181.907C262.547 182.457 261.678 182.899 260.763 183.223L260.375 185.875L255.945 186.219L255.151 183.66C254.197 183.482 253.27 183.18 252.394 182.762L250.24 184.367L246.85 181.483L248.081 179.108C247.528 178.312 247.085 177.445 246.764 176.531L244.111 176.143L243.761 171.714L246.327 170.921H246.339ZM252.339 173.068C252.412 174.009 252.762 174.907 253.347 175.649C253.931 176.391 254.722 176.943 255.621 177.234C256.519 177.526 257.484 177.544 258.393 177.287C259.301 177.03 260.113 176.509 260.726 175.79C261.338 175.071 261.722 174.186 261.831 173.248C261.94 172.31 261.767 171.361 261.335 170.521C260.904 169.682 260.232 168.989 259.406 168.531C258.58 168.073 257.637 167.871 256.695 167.95C255.44 168.053 254.276 168.65 253.46 169.609C252.643 170.568 252.24 171.812 252.339 173.068Z" fill="#EBEBEB"/>
<path d="M191.917 177.595H161.315C159.517 177.59 157.751 177.114 156.194 176.214C154.637 175.313 153.344 174.02 152.444 172.463C151.544 170.906 151.068 169.14 151.064 167.342C151.061 165.544 151.53 163.777 152.424 162.217L167.734 135.71L183.037 109.204C183.94 107.645 185.237 106.35 186.798 105.45C188.359 104.55 190.13 104.076 191.932 104.076C193.735 104.076 195.505 104.55 197.066 105.45C198.628 106.35 199.925 107.645 200.827 109.204L216.137 135.71L231.447 162.217C232.341 163.777 232.81 165.545 232.806 167.344C232.802 169.143 232.326 170.909 231.425 172.466C230.525 174.022 229.231 175.316 227.673 176.216C226.115 177.116 224.348 177.591 222.549 177.595H191.917Z" fill="#C53F3F"/>
<path d="M224.875 165.255C224.875 165.255 224.954 165.409 225.108 165.729C225.371 166.37 225.471 167.065 225.4 167.754C225.33 168.443 225.09 169.104 224.702 169.678C224.398 170.131 224.007 170.52 223.551 170.822C223.022 171.159 222.417 171.357 221.792 171.4C216.573 171.456 209.041 171.443 199.725 171.468L167.001 171.505H162.324C161.49 171.496 160.679 171.228 160.003 170.739C159.328 170.25 158.82 169.563 158.552 168.774C158.267 167.985 158.213 167.131 158.398 166.313C158.447 166.11 158.515 165.907 158.583 165.698C158.65 165.489 158.761 165.31 158.853 165.126L159.469 164.049C160.256 162.604 161.056 161.152 161.856 159.682L171.776 141.48L181.757 123.291C183.361 120.35 184.94 117.465 186.495 114.636C186.889 113.935 187.252 113.227 187.67 112.532C188.086 111.822 188.68 111.232 189.393 110.822C190.092 110.422 190.877 110.194 191.682 110.158C192.486 110.121 193.288 110.277 194.021 110.613C194.747 110.941 195.381 111.444 195.867 112.077C196.287 112.715 196.667 113.378 197.005 114.064C197.725 115.38 198.439 116.678 199.134 117.957C200.537 120.516 201.893 123 203.202 125.407C205.829 130.211 208.272 134.689 210.5 138.774C214.955 146.949 218.555 153.568 221.047 158.15L223.902 163.422C224.222 164.037 224.468 164.48 224.635 164.8C224.801 165.12 224.881 165.274 224.881 165.274C224.881 165.274 224.782 165.12 224.61 164.812L223.847 163.453L220.936 158.206C218.426 153.635 214.783 147.041 210.303 138.884L202.974 125.53L198.888 118.093C198.187 116.813 197.479 115.515 196.753 114.199C196.414 113.535 196.038 112.89 195.627 112.268C195.173 111.677 194.581 111.206 193.904 110.896C193.214 110.579 192.459 110.432 191.702 110.466C190.944 110.501 190.205 110.715 189.547 111.093C188.88 111.483 188.325 112.038 187.935 112.704C187.529 113.375 187.16 114.094 186.772 114.796L182.034 123.451C178.821 129.331 175.486 135.415 172.077 141.652L162.115 159.842C161.309 161.312 160.515 162.77 159.721 164.209C159.288 164.888 158.947 165.62 158.706 166.387C158.53 167.153 158.579 167.954 158.847 168.694C159.09 169.426 159.557 170.064 160.182 170.518C160.807 170.971 161.558 171.217 162.33 171.222H167.007L199.731 171.253L221.792 171.283C222.396 171.248 222.982 171.062 223.496 170.742C223.944 170.451 224.331 170.075 224.635 169.635C225.108 168.938 225.361 168.115 225.361 167.273C225.353 166.572 225.187 165.882 224.875 165.255Z" fill="#263238"/>
<path d="M186.957 159.583C186.957 156.871 189.123 154.847 192.206 154.847C195.289 154.847 197.406 156.871 197.406 159.583C197.406 162.296 195.289 164.412 192.206 164.412C189.123 164.412 186.957 162.259 186.957 159.583ZM187.006 131.798H197.406L195.658 152.269H188.711L187.006 131.798Z" fill="white"/>
<path d="M193.382 106.141C192.752 105.928 192.099 105.792 191.437 105.735C189.828 105.7 188.257 106.227 186.994 107.224C185.761 108.252 184.768 109.536 184.084 110.988C183.524 112.096 183.259 112.834 183.21 112.803C183.227 112.621 183.27 112.443 183.339 112.274C183.493 111.803 183.674 111.34 183.881 110.89C184.531 109.366 185.538 108.02 186.816 106.965C188.133 105.921 189.791 105.403 191.468 105.514C191.971 105.551 192.463 105.672 192.926 105.87C193.228 106.012 193.394 106.123 193.382 106.141Z" fill="white"/>
<path d="M180.582 117.387C180.708 116.856 180.936 116.354 181.253 115.91C181.702 115.153 182.127 114.574 182.207 114.617C182.077 115.141 181.847 115.634 181.53 116.07C181.302 116.566 180.98 117.013 180.582 117.387Z" fill="white"/>
<g opacity="0.3">
<path d="M207.276 120.375L159.593 149.741L153.402 160.469L210.642 126.2L207.276 120.375Z" fill="white"/>
</g>
<g opacity="0.3">
<path d="M214.783 133.392L151.58 170.656C151.834 171.633 152.302 172.541 152.952 173.314L215.897 135.323L214.783 133.392Z" fill="white"/>
</g>
<path d="M370.978 202.889C368.576 200.243 365.461 198.343 362.008 197.418C358.554 196.493 354.907 196.582 351.502 197.673L345.613 191.214L344.795 190.298L298.194 139.186C299.504 136.153 299.982 132.825 299.579 129.545C299.177 126.266 297.907 123.152 295.902 120.526C293.897 117.899 291.229 115.853 288.171 114.598C285.113 113.344 281.776 112.926 278.503 113.388L276.226 114.292L284.146 119.6L283.721 128.243L277.315 134.056L268.67 133.632L263.021 127.406L260.689 128.323C260.018 133.533 263.513 140.103 267.322 144.316C269.721 146.96 272.829 148.858 276.277 149.784C279.725 150.71 283.366 150.625 286.767 149.539L334.149 201.505L335.602 203.123L340.094 208.044C338.689 211.318 338.254 214.927 338.842 218.441C339.43 221.954 341.016 225.225 343.41 227.864C347.201 232.047 352.235 234.839 357.471 234.698L359.81 233.788L354.155 227.556L354.579 218.944L360.985 213.131L369.6 213.55L372.911 220.691L375.249 219.775C375.97 216.826 375.958 213.745 375.213 210.801C374.469 207.858 373.015 205.142 370.978 202.889Z" fill="#E0E0E0"/>
<g opacity="0.3">
<path d="M370.978 202.889C368.576 200.243 365.461 198.343 362.008 197.418C358.554 196.493 354.907 196.582 351.502 197.673L345.613 191.214L344.795 190.298L298.194 139.186C299.504 136.153 299.982 132.825 299.579 129.545C299.177 126.266 297.907 123.152 295.902 120.526C293.897 117.899 291.229 115.853 288.171 114.598C285.113 113.344 281.776 112.926 278.503 113.388L276.226 114.292L284.146 119.6L283.721 128.243L277.315 134.056L268.67 133.632L263.021 127.406L260.689 128.323C260.018 133.533 263.513 140.103 267.322 144.316C269.721 146.96 272.829 148.858 276.277 149.784C279.725 150.71 283.366 150.625 286.767 149.539L334.149 201.505L335.602 203.123L340.094 208.044C338.689 211.318 338.254 214.927 338.842 218.441C339.43 221.954 341.016 225.225 343.41 227.864C347.201 232.047 352.235 234.839 357.471 234.698L359.81 233.788L354.155 227.556L354.579 218.944L360.985 213.131L369.6 213.55L372.911 220.691L375.249 219.775C375.97 216.826 375.958 213.745 375.213 210.801C374.469 207.858 373.015 205.142 370.978 202.889Z" fill="black"/>
</g>
<path d="M368.64 203.799C366.239 201.153 363.126 199.254 359.673 198.33C356.22 197.406 352.574 197.496 349.171 198.589L343.276 192.124L342.457 191.208L295.857 140.096C297.167 137.063 297.645 133.735 297.243 130.456C296.84 127.176 295.571 124.063 293.566 121.436C291.56 118.81 288.891 116.765 285.833 115.511C282.775 114.257 279.438 113.841 276.165 114.304L281.814 120.529L281.396 129.141L274.978 134.978L266.363 134.56L260.714 128.335C259.933 131.544 260.021 134.903 260.969 138.067C261.917 141.231 263.691 144.086 266.109 146.337C268.526 148.588 271.5 150.155 274.724 150.877C277.949 151.599 281.307 151.449 284.454 150.443L331.836 202.409L333.295 204.027L337.787 208.948C336.482 211.98 336.009 215.305 336.414 218.581C336.82 221.856 338.09 224.965 340.094 227.588C342.099 230.211 344.765 232.254 347.82 233.507C350.875 234.759 354.208 235.177 357.478 234.716L351.823 228.479L352.241 219.867L358.653 214.054L367.268 214.478L372.917 220.703C373.643 217.751 373.632 214.666 372.887 211.718C372.141 208.771 370.683 206.052 368.64 203.799Z" fill="#E0E0E0"/>
<path d="M368.64 203.8C368.64 203.8 368.911 204.095 369.421 204.692C370.149 205.6 370.793 206.572 371.347 207.595C373.486 211.615 374.077 216.278 373.009 220.704V220.827L372.923 220.734L367.268 214.515L367.317 214.546L358.702 214.134H358.763L352.364 219.953V219.886C352.241 222.568 352.099 225.489 351.951 228.528V228.448L357.557 234.63L357.705 234.79L357.49 234.821C354.369 235.274 351.185 234.93 348.234 233.821C345.282 232.712 342.66 230.874 340.61 228.479C338.381 225.89 336.911 222.735 336.365 219.363C335.784 215.827 336.224 212.2 337.632 208.905V209.053L284.287 150.56L284.453 150.603C281.082 151.668 277.48 151.77 274.054 150.898C269.281 149.664 265.186 146.603 262.653 142.375C260.12 138.147 259.352 133.093 260.516 128.305L260.59 128.009L260.793 128.231L266.442 134.456L266.331 134.407L274.977 134.825L274.86 134.868L281.309 129.049L281.254 129.16C281.395 126.244 281.537 123.371 281.678 120.517L281.715 120.628L276.066 114.403L275.875 114.187L276.158 114.15C279.561 113.67 283.031 114.132 286.189 115.488C289.347 116.844 292.071 119.041 294.065 121.84C295.973 124.509 297.142 127.635 297.456 130.9C297.746 134.048 297.249 137.219 296.01 140.127V139.98L349.268 198.516H349.195C351.729 197.707 354.408 197.449 357.051 197.76C359.694 198.071 362.239 198.943 364.517 200.318C365.674 201.024 366.755 201.849 367.741 202.779C368.357 203.437 368.689 203.775 368.689 203.775L367.717 202.803C366.722 201.878 365.637 201.054 364.48 200.343C362.208 198.989 359.674 198.134 357.046 197.835C354.418 197.536 351.756 197.799 349.238 198.608H349.195V198.571L295.837 140.134L295.776 140.066L295.813 139.986C297.033 137.111 297.519 133.979 297.228 130.87C296.92 127.653 295.765 124.575 293.881 121.95C291.918 119.197 289.236 117.036 286.128 115.703C283.02 114.37 279.605 113.916 276.257 114.39L276.349 114.138L281.924 120.425L281.967 120.468V120.535C281.832 123.381 281.692 126.252 281.549 129.147V129.215L281.5 129.258L275.094 135.071L275.045 135.114H274.977L266.362 134.69H266.294L266.251 134.64L260.596 128.415L260.873 128.348C260.1 131.528 260.188 134.856 261.126 137.992C262.064 141.127 263.82 143.957 266.213 146.191C268.606 148.424 271.55 149.982 274.743 150.703C277.937 151.424 281.265 151.284 284.386 150.296H284.478L284.552 150.369C303.923 171.641 322.088 191.553 337.86 208.887L337.921 208.955L337.884 209.041C336.5 212.281 336.063 215.847 336.623 219.326C337.163 222.565 338.552 225.603 340.649 228.131C342.746 230.658 345.476 232.585 348.561 233.714C351.407 234.743 354.462 235.06 357.459 234.636L357.385 234.827L351.742 228.602L351.711 228.565V228.479C351.859 225.446 352.001 222.524 352.136 219.867V219.824V219.793L358.554 213.993H358.591L367.206 214.423C369.274 216.711 371.175 218.809 372.843 220.661H372.732C373.808 216.263 373.242 211.623 371.138 207.614C370.592 206.59 369.96 205.615 369.249 204.698C368.892 204.114 368.64 203.8 368.64 203.8Z" fill="#263238"/>
<path d="M293.733 143.08C293.689 143.243 293.621 143.399 293.53 143.541C293.314 143.941 293.074 144.328 292.81 144.698C291.065 147.179 288.605 149.069 285.758 150.117C285.332 150.277 284.896 150.409 284.453 150.511C284.295 150.564 284.128 150.591 283.961 150.591C283.961 150.535 284.632 150.351 285.678 149.908C288.423 148.766 290.82 146.925 292.631 144.568C293.327 143.664 293.684 143.055 293.733 143.08Z" fill="#263238"/>
<path d="M345.774 165.28L328.076 157.037L312.256 155.062L318.065 159.984C318.065 159.984 297.61 167.113 297.253 168.718C296.896 170.324 298.866 174.642 302.472 173.843C302.472 173.843 300.447 176.303 301.29 179.016C302.133 181.729 303.998 182.239 307.444 181.605C307.444 181.605 305.105 185.106 306.939 186.889C308.773 188.673 311.628 188.224 311.628 188.224C311.628 188.224 311.665 192.487 313.917 192.856C316.169 193.225 322.446 192.789 324.79 192.069L336.697 188.378L344.414 186.65L345.774 165.28Z" fill="#FFBF9D"/>
<path d="M313.197 170.692C313.264 170.926 310.907 171.812 307.941 172.679C304.975 173.547 302.502 174.051 302.434 173.817C302.366 173.584 304.723 172.692 307.689 171.83C310.655 170.969 313.129 170.459 313.197 170.692Z" fill="#FF9A6C"/>
<path d="M316.206 179.102C316.273 179.336 314.409 180.105 312.034 180.825C309.658 181.545 307.671 181.927 307.597 181.693C307.523 181.459 309.4 180.69 311.775 179.976C314.15 179.262 316.138 178.875 316.206 179.102Z" fill="#FF9A6C"/>
<path d="M318.907 186.096C318.95 186.36 317.252 186.711 315.258 187.216C313.264 187.72 311.708 188.446 311.566 188.194C311.425 187.942 312.889 186.927 315.012 186.348C317.135 185.77 318.876 185.88 318.907 186.096Z" fill="#FF9A6C"/>
<path d="M321.141 159.277C321.209 159.516 318.889 160.359 316.015 161.35C313.141 162.34 310.797 163.097 310.698 162.869C310.6 162.641 312.828 161.51 315.732 160.513C318.637 159.516 321.079 159.043 321.141 159.277Z" fill="#FF9A6C"/>
<path d="M342.439 163.729L380.769 177.607L378.529 203.904L336.328 186.895L342.439 163.729Z" fill="#FFBF9D"/>
<path d="M391.617 117.712C391.617 117.712 396.614 122.873 399.524 132.155C402.435 141.438 416.139 180.788 415.807 193.306C415.444 206.254 406.724 215.493 387.562 210.376C376.129 207.3 362.505 202.379 362.505 202.379L372.191 170.552L379.766 172.502L367.532 149.545L391.617 117.712Z" fill="#C53F3F"/>
<path d="M382.842 132.751C382.916 132.807 377.612 140.354 371.003 149.612C364.394 158.87 358.985 166.35 358.911 166.288C358.837 166.227 364.141 158.685 370.75 149.427C377.359 140.17 382.774 132.702 382.842 132.751Z" fill="#263238"/>
<path d="M397.512 176.807C397.512 176.807 397.18 176.648 396.583 176.371C395.733 175.992 394.854 175.681 393.955 175.442C392.817 175.128 391.438 174.827 389.906 174.501L384.934 173.406C381.408 172.618 378.214 171.886 375.913 171.339L373.187 170.675C372.849 170.61 372.517 170.515 372.196 170.392C372.539 170.42 372.878 170.475 373.212 170.558L375.962 171.117C378.282 171.61 381.5 172.305 385.008 173.092L389.974 174.218C391.5 174.562 392.878 174.882 394.017 175.227C394.921 175.489 395.798 175.835 396.638 176.26C396.865 176.376 397.085 176.505 397.297 176.647C397.375 176.691 397.447 176.745 397.512 176.807Z" fill="#263238"/>
<g opacity="0.3">
<path d="M407.309 178.21C407.187 177.454 406.883 176.74 406.425 176.127C405.966 175.515 405.366 175.022 404.676 174.691C403.29 174.036 401.797 173.636 400.27 173.51C393.384 172.563 386.418 172.28 379.471 172.04L380.086 172.317C388.669 173.903 397.07 176.351 405.162 179.625C405.604 179.87 406.126 179.932 406.614 179.797C406.878 179.635 407.086 179.396 407.21 179.112C407.334 178.828 407.369 178.514 407.309 178.21Z" fill="black"/>
</g>
<g opacity="0.3">
<path d="M249.397 56.1924C242.936 55.0913 235.207 56.9674 228.746 55.8663C227.786 55.7064 226.727 55.5526 225.878 56.0447C224.857 56.6291 224.506 57.9332 224.457 59.1204C224.431 60.7493 224.746 62.3656 225.382 63.8656C226.017 65.3657 226.96 66.7162 228.149 67.8307C230.568 70.042 233.59 71.485 236.831 71.9767C239.41 72.4134 242.185 72.3273 244.48 71.0847C248.517 68.8949 250.455 60.6275 249.397 56.1924Z" fill="black"/>
</g>
<path d="M224.322 68.009C224.322 68.009 220.402 63.4139 219.836 61.2979C219.46 59.8954 219.645 55.9647 219.836 53.4734C219.879 52.6339 220.167 51.8254 220.665 51.1477C221.162 50.47 221.848 49.9527 222.636 49.6595C222.867 49.545 223.124 49.4954 223.381 49.516C223.638 49.5366 223.884 49.6266 224.094 49.7764C224.626 49.0548 225.224 48.3835 225.879 47.7711C227.417 46.1963 228.149 45.1322 231.534 46.1102C231.534 46.1102 234.026 43.4836 235.46 43.6805C236.422 43.8228 237.374 44.0282 238.309 44.2956C238.309 44.2956 243.767 44.0618 244.887 45.7965C245.523 46.5796 246.381 47.1521 247.348 47.4389C248.202 47.7401 248.987 48.2094 249.656 48.819C250.325 49.4287 250.865 50.1663 251.243 50.9882C251.88 52.4979 252.249 54.107 252.333 55.7432L246.794 55.9647C246.794 55.9647 247.188 68.7041 245.791 69.7313C244.395 70.7586 243.865 70.3895 243.865 70.3895C243.865 70.3895 242.801 73.3791 238.647 71.1707C238.647 71.1707 235.201 72.2103 233.724 70.7894C232.248 69.3684 226.845 55.7186 226.845 55.7186L226.999 62.4851C226.999 62.4851 229.848 66.871 228.451 67.8982C227.054 68.9255 224.322 68.009 224.322 68.009Z" fill="#FFBF9D"/>
<path d="M231.238 50.7422C231.369 50.9976 231.474 51.2655 231.552 51.5419L232.303 53.7563C232.918 55.6017 233.761 58.2345 234.66 61.1072C235.558 63.9799 236.309 66.6434 237.158 68.3904C237.485 69.0941 237.863 69.7726 238.29 70.4203C238.592 70.8816 238.782 71.1154 238.764 71.1338C238.746 71.1523 238.696 71.0908 238.598 70.9801C238.454 70.8258 238.318 70.6635 238.192 70.4941C237.719 69.8662 237.307 69.1947 236.961 68.4888C236.044 66.711 235.275 64.0721 234.364 61.2056C233.454 58.3391 232.66 55.7186 232.094 53.824C231.835 52.9198 231.614 52.1693 231.441 51.5788C231.348 51.3067 231.28 51.0267 231.238 50.7422Z" fill="#FF9A6C"/>
<path d="M238.05 49.167C238.173 49.4309 238.268 49.7072 238.333 49.9913L238.991 52.2734C239.527 54.1988 240.222 56.8685 241.034 59.8211C241.847 62.7737 242.505 65.4557 242.985 67.3995C243.213 68.3222 243.397 69.0973 243.545 69.7001C243.628 69.9809 243.681 70.2695 243.705 70.5613C243.588 70.2946 243.494 70.019 243.422 69.737C243.25 69.1219 243.034 68.3714 242.77 67.4549C242.228 65.5295 241.502 62.8599 240.727 59.9072C239.951 56.9546 239.256 54.2726 238.77 52.3288C238.548 51.3999 238.357 50.631 238.216 50.022C238.133 49.743 238.078 49.4566 238.05 49.167Z" fill="#FF9A6C"/>
</svg>
