<svg width="32" height="32" viewBox="0 0 32 32" fill="none" xmlns="http://www.w3.org/2000/svg">
<path fill-rule="evenodd" clip-rule="evenodd" d="M13.8177 0C14.3865 0 15.0773 0.172963 16.5603 0.994538L17.3729 0.497269C17.9011 0.172963 18.5106 0 19.1607 0C19.6889 0 20.3593 0.108102 20.664 0.237824C20.989 0.345926 21.5376 0.778334 21.9235 1.14588C22.2892 1.53505 22.7362 2.16204 22.8784 2.52959C23.0409 2.91875 23.1628 3.63223 23.1628 4.10787C23.1628 4.58352 23.0206 5.34024 22.8377 5.79426C22.6549 6.26991 21.3547 7.8482 16.5603 12.9722L13.5536 9.79404C11.8877 8.02116 10.4453 6.39963 10.3234 6.16181C10.2016 5.92399 10.0187 5.38348 9.93746 4.97269C9.83588 4.54028 9.85619 3.78357 9.97809 3.24306C10.1 2.70255 10.4047 1.94583 10.6485 1.53505C10.9329 1.12426 11.5221 0.648612 12.0096 0.410787C12.4972 0.194583 13.3098 0 13.8177 0ZM23.6707 12.7776C23.9145 12.7776 24.6255 13.3398 25.4991 14.2695C26.7993 15.6748 27.1243 15.891 32 18.0746V28.193L25.4991 30.7226L23.5894 30.4415C22.5533 30.2902 21.6595 30.0956 21.6188 30.0091C21.5782 29.901 21.6391 29.6632 21.761 29.4686C21.9236 29.1875 22.2486 29.0794 23.0003 29.0794C23.8738 29.0794 24.077 28.9929 24.6052 28.3876C25.0724 27.8254 25.1943 27.4795 25.1943 26.7012C25.1943 25.9661 25.3162 25.5769 25.7022 25.1445C26.0476 24.7553 26.2304 24.3013 26.2101 23.8473C26.2101 23.4581 26.0882 22.8744 25.9257 22.5501C25.7429 22.1609 24.9912 21.5771 23.7926 20.8637C22.7768 20.2799 21.9439 19.6529 21.9439 19.5232C21.9439 19.3719 22.2892 19.1557 22.6955 19.0476C23.1222 18.9178 23.7316 18.7665 24.077 18.7016C24.4223 18.6152 24.9912 18.4638 25.3365 18.3557C25.8038 18.226 26.007 18.0314 26.007 17.7287C26.007 17.4909 25.8851 17.2531 25.7428 17.1882C25.621 17.1233 24.5646 17.3179 23.4066 17.6206C22.2689 17.9233 21.0703 18.1611 20.7249 18.1611C20.3796 18.1611 20.0748 18.053 20.0139 17.9449C19.953 17.8368 19.9936 17.6855 20.1155 17.6206C20.2171 17.5558 20.3186 17.3179 20.3186 17.0801C20.3186 16.8423 20.1967 16.6045 20.0545 16.5612C19.9326 16.518 18.3277 17.2963 16.4993 18.2908C14.5287 19.3935 12.9645 20.107 12.5988 20.107C12.1925 20.107 11.9216 19.9628 11.7862 19.6746C11.6643 19.4367 11.583 19.0692 11.583 18.8746C11.5627 18.6368 12.5785 17.5558 16.5603 13.9668L19.9123 13.383C21.761 13.0587 23.4472 12.7993 23.6707 12.7776ZM3.8022 13.1884C3.82251 13.1884 4.98049 13.7938 8.84042 15.8477L10.6688 15.6099C11.6643 15.5018 12.5785 15.4586 12.6597 15.5234C12.7613 15.6099 12.355 16.1072 11.7862 16.6477C11.1564 17.2531 10.6688 17.9017 10.5266 18.3773C10.3438 19.0043 10.3844 19.2854 10.6891 19.9772C10.9126 20.4313 11.3189 20.9502 11.6236 21.1015C11.9487 21.2745 12.4159 21.4042 12.7004 21.4042C12.9848 21.4042 14.3053 20.8204 18.0839 18.8097L21.5579 20.9285C23.5488 22.1393 25.0521 23.1771 25.1131 23.3933C25.1537 23.6095 25.0928 23.977 24.9912 24.2148C24.8693 24.4527 24.6052 24.6905 24.3817 24.7553C24.1176 24.8202 22.9393 24.2581 21.0297 23.1338C19.4044 22.1825 17.9824 21.4474 17.8808 21.5123C17.7589 21.5771 17.6776 21.815 17.6776 22.0528C17.6776 22.3771 18.409 22.9176 20.8265 24.3662C22.8581 25.5985 24.016 26.4201 24.0973 26.7012C24.1582 26.9606 24.0567 27.2849 23.8332 27.5228C23.63 27.739 23.2441 27.8903 22.9596 27.8903C22.6752 27.8903 20.989 27.0039 19.2013 25.9228C17.4135 24.8634 15.8086 24.0203 15.6461 24.0419C15.4836 24.0851 15.3414 24.3013 15.3414 24.5391C15.3414 24.8418 16.0524 25.3823 18.0839 26.6363C19.5873 27.5444 20.8468 28.4092 20.8671 28.5173C20.9078 28.647 20.7453 28.9497 20.5218 29.1875C20.2983 29.4253 19.8514 29.6199 19.506 29.6199C19.1403 29.6199 18.023 29.101 16.7025 28.3227C15.5039 27.6092 14.3662 27.0255 14.1631 27.0255C13.9802 27.0255 13.5333 26.7444 13.2082 26.3769C12.8629 26.0093 12.4159 25.7283 12.1925 25.7283C11.969 25.7283 11.5017 25.4472 11.1767 25.0796C10.7704 24.6472 10.3641 24.431 9.95777 24.431C9.51083 24.431 9.32799 24.3013 9.24673 23.9986C9.18578 23.7608 8.84042 23.4149 8.47475 23.2203C7.90591 22.896 7.74339 22.896 7.13393 23.1554C6.68699 23.35 6.28068 23.7824 5.97595 24.3662C5.71185 24.8851 5.3868 25.2959 5.28522 25.2959C5.16333 25.2959 3.96472 24.6472 2.58327 23.8473C1.22214 23.0473 0.0641626 22.3771 0.0032163 22.3339C-0.05773 22.3122 0.754887 20.2367 1.81129 17.7287C2.86769 15.2424 3.76157 13.1884 3.8022 13.1884ZM16.0524 29.4037C16.1133 29.4037 16.6009 29.6632 17.1494 29.9875C17.6979 30.3118 18.1855 30.7442 18.2465 30.9172C18.3074 31.0901 18.1449 31.4144 17.8605 31.6306C17.5964 31.8468 17.1291 32.0198 16.8041 31.9982C16.4993 31.9982 16.0118 31.8252 15.6867 31.6306C15.382 31.436 15.1179 31.2415 15.0773 31.1982C15.0569 31.155 15.2398 30.7442 15.4836 30.2685C15.7273 29.7929 15.9915 29.4037 16.0524 29.4037ZM7.80434 24.2581C8.04812 24.3013 8.25128 24.5175 8.29191 24.7553C8.33254 24.9932 8.10907 25.6418 7.78402 26.2039C7.47929 26.7877 7.0933 27.2849 6.95109 27.3498C6.8292 27.4146 6.5651 27.4146 6.40257 27.3498C6.24005 27.2849 6.07753 27.0471 6.05721 26.8093C6.03689 26.5715 6.32131 25.8796 6.7073 25.2959C7.21519 24.4527 7.47929 24.2148 7.80434 24.2581ZM9.89682 25.5553C10.0797 25.5985 10.3031 25.7715 10.425 25.9445C10.5672 26.1823 10.4047 26.6796 9.77493 27.8471C9.08421 29.1227 8.86074 29.4037 8.43411 29.4037C8.1497 29.4037 7.8856 29.2524 7.82465 29.0794C7.76371 28.9065 7.82465 28.5389 7.94654 28.2795C8.08875 27.9984 8.49506 27.2633 8.88105 26.6363C9.32799 25.9012 9.69367 25.5121 9.89682 25.5553ZM12.0706 27.0687C12.294 27.112 12.5175 27.3065 12.5378 27.5228C12.5785 27.7173 12.1722 28.6686 11.6236 29.6199C11.0954 30.5712 10.5266 31.3496 10.3641 31.3496C10.2016 31.3712 9.93746 31.2198 9.79525 31.0253C9.59209 30.7658 9.67335 30.4847 10.2016 29.4686C10.5469 28.7767 11.0142 27.9335 11.2376 27.6092C11.495 27.2057 11.7726 27.0255 12.0706 27.0687ZM14.1631 28.3227C14.4272 28.3227 14.6709 28.4741 14.7319 28.647C14.7928 28.82 14.5084 29.5983 14.1224 30.3766C13.5333 31.5225 13.3301 31.782 12.9035 31.782C12.6191 31.782 12.355 31.6306 12.294 31.4577C12.2331 31.2847 12.5378 30.5064 12.9441 29.728C13.513 28.6254 13.7771 28.3227 14.1631 28.3227Z" fill="#5FC2D1"/>
</svg>
